<svg xmlns="http://www.w3.org/2000/svg" width="126" height="131" viewBox="0 0 126 131" fill="none"><path d="M25.1 2.5H100.9C113.382 2.5 123.5 12.6184 123.5 25.1V100.9C123.5 113.382 113.382 123.5 100.9 123.5H25.1C12.6184 123.5 2.5 113.382 2.5 100.9V25.1C2.5 12.6184 12.6184 2.5 25.1 2.5Z" stroke="#B01B23" stroke-width="5"></path><path d="M62.75 41.78C66.8314 41.78 70.14 38.4714 70.14 34.39C70.14 30.3086 66.8314 27 62.75 27C58.6686 27 55.36 30.3086 55.36 34.39C55.36 38.4714 58.6686 41.78 62.75 41.78Z" fill="#B01B23"></path><path d="M51.34 85.43H74.16C74.5024 85.4242 74.8386 85.3371 75.1408 85.1758C75.4429 85.0145 75.7024 84.7837 75.8978 84.5024C76.0932 84.221 76.2188 83.8973 76.2644 83.5578C76.31 83.2184 76.2742 82.8729 76.16 82.55L70.48 66.28L69.66 47.63H55.83L55.01 66.28L49.33 82.55C49.2155 82.8737 49.1798 83.22 49.226 83.5602C49.2721 83.9005 49.3986 84.2248 49.5951 84.5064C49.7916 84.7879 50.0524 85.0186 50.3559 85.1792C50.6593 85.3398 50.9967 85.4258 51.34 85.43Z" fill="#B01B23"></path><path d="M48.49 67.65L56.62 47.64H68.89L77.02 67.65" stroke="#B01B23" stroke-width="6.98" stroke-linecap="round" stroke-linejoin="round"></path><path d="M67.22 74.27V99.86" stroke="#B01B23" stroke-width="6.98" stroke-linecap="round" stroke-linejoin="round"></path><path d="M58.28 74.27V99.86" stroke="#B01B23" stroke-width="6.98" stroke-linecap="round" stroke-linejoin="round"></path></svg>