<svg xmlns="http://www.w3.org/2000/svg" width="126" height="126" viewBox="0 0 126 126" fill="none"><path d="M52.79 81.86H61.63V70.48C59.9186 75.0893 56.8328 79.0617 52.79 81.86Z" fill="#B01B23"></path><path d="M95.01 60.62H97.38V56.93C97.38 43.17 89.83 32 80.51 32H52.79C59.49 36.3 64.16 45.86 64.16 56.93C64.16 57.93 64.16 58.84 64.05 59.77V97.14L67.67 94.72L73.61 98.72L79.55 94.72L85.55 98.72L91.49 94.72L97.43 98.72V63.05H95.06C94.7568 63.0225 94.4748 62.8825 94.2695 62.6577C94.0642 62.4329 93.9503 62.1395 93.9503 61.835C93.9503 61.5305 94.0642 61.2371 94.2695 61.0123C94.4748 60.7875 94.7568 60.6475 95.06 60.62H95.01ZM86.11 63.05H82.11C81.8068 63.0225 81.5248 62.8825 81.3195 62.6577C81.1142 62.4329 81.0003 62.1395 81.0003 61.835C81.0003 61.5305 81.1142 61.2371 81.3195 61.0123C81.5248 60.7875 81.8068 60.6475 82.11 60.62H86.11C86.4132 60.6475 86.6952 60.7875 86.9005 61.0123C87.1058 61.2371 87.2196 61.5305 87.2196 61.835C87.2196 62.1395 87.1058 62.4329 86.9005 62.6577C86.6952 62.8825 86.4132 63.0225 86.11 63.05ZM74.37 61.83C74.3713 61.9897 74.341 62.1482 74.2808 62.2961C74.2205 62.4441 74.1316 62.5786 74.0191 62.6921C73.9066 62.8055 73.7728 62.8955 73.6254 62.9569C73.4779 63.0184 73.3197 63.05 73.16 63.05H69.16C68.8568 63.0225 68.5748 62.8825 68.3695 62.6577C68.1642 62.4329 68.0503 62.1395 68.0503 61.835C68.0503 61.5305 68.1642 61.2371 68.3695 61.0123C68.5748 60.7875 68.8568 60.6475 69.16 60.62H73.16C73.4809 60.62 73.7887 60.7475 74.0156 60.9744C74.2425 61.2013 74.37 61.5091 74.37 61.83Z" fill="#B01B23"></path><path d="M44.86 32C42.2233 32.0382 39.6656 32.9059 37.55 34.48C37.0673 34.8322 36.6033 35.2093 36.16 35.61C35.4433 36.257 34.7748 36.9555 34.16 37.7C33.5224 38.4835 32.9377 39.3087 32.41 40.17C31.8487 41.0796 31.3477 42.0249 30.91 43C30.6 43.66 30.32 44.34 30.06 45C27.3536 52.6922 27.3536 61.0778 30.06 68.77C30.32 69.47 30.6 70.16 30.91 70.77C31.3477 71.7451 31.8487 72.6904 32.41 73.6C32.9339 74.4956 33.5186 75.3543 34.16 76.17C34.58 76.68 35.01 77.17 35.46 77.61C35.69 77.83 35.92 78.05 36.15 78.25C36.8238 78.8665 37.5536 79.4189 38.33 79.9C40.2819 81.1757 42.5632 81.8551 44.895 81.8551C47.2268 81.8551 49.5081 81.1757 51.46 79.9C52.2346 79.4164 52.9642 78.8642 53.64 78.25C53.87 78.05 54.1 77.83 54.32 77.61C54.7789 77.1537 55.2129 76.673 55.62 76.17C56.482 75.1134 57.2484 73.9823 57.91 72.79C58.25 72.18 58.58 71.54 58.91 70.87C59.3724 69.8493 59.7796 68.8044 60.13 67.74C60.7404 65.8562 61.1821 63.922 61.45 61.96C61.55 61.2133 61.63 60.4533 61.69 59.68C61.69 59.61 61.69 59.55 61.69 59.48C61.75 58.64 61.78 57.79 61.78 56.93C61.73 43.17 54.16 32 44.86 32ZM44.86 68.36C40.6 68.36 37.14 63.24 37.14 56.93C37.14 50.62 40.6 45.48 44.86 45.48C49.12 45.48 52.59 50.6 52.59 56.9C52.59 63.2 49.16 68.36 44.86 68.36Z" fill="#B01B23"></path><path d="M25.1 2.5H100.9C113.382 2.5 123.5 12.6184 123.5 25.1V100.9C123.5 113.382 113.382 123.5 100.9 123.5H25.1C12.6184 123.5 2.5 113.382 2.5 100.9V25.1C2.5 12.6184 12.6184 2.5 25.1 2.5Z" stroke="#B01B23" stroke-width="5"></path></svg>