<svg xmlns="http://www.w3.org/2000/svg" width="126" height="126" viewBox="0 0 126 126" fill="none"><path d="M25.1 2.5H100.9C113.382 2.5 123.5 12.6184 123.5 25.1V100.9C123.5 113.382 113.382 123.5 100.9 123.5H25.1C12.6184 123.5 2.5 113.382 2.5 100.9V25.1C2.5 12.6184 12.6184 2.5 25.1 2.5Z" stroke="#B01B23" stroke-width="5"></path><path d="M56.9378 104C53.0718 104 49.9378 100.866 49.9378 97V28C49.9378 24.134 53.0718 21 56.9378 21H68.0622C71.9282 21 75.0622 24.134 75.0622 28V97C75.0622 100.866 71.9282 104 68.0622 104H56.9378ZM28 75.0622C24.134 75.0622 21 71.9282 21 68.0622V56.9378C21 53.0718 24.134 49.9378 28 49.9378H97C100.866 49.9378 104 53.0718 104 56.9378V68.0622C104 71.9282 100.866 75.0622 97 75.0622H28Z" fill="#B01B23"></path></svg>