<svg xmlns="http://www.w3.org/2000/svg" width="126" height="126" viewBox="0 0 126 126" fill="none"><path d="M25.1 2.5H100.9C113.382 2.5 123.5 12.6184 123.5 25.1V100.9C123.5 113.382 113.382 123.5 100.9 123.5H25.1C12.6184 123.5 2.5 113.382 2.5 100.9V25.1C2.5 12.6184 12.6184 2.5 25.1 2.5Z" stroke="#B01B23" stroke-width="5"></path><path d="M63.2483 42.4852C67.016 40.9161 68.7983 36.5897 67.2292 32.822C65.6601 29.0543 61.3338 27.272 57.5661 28.8411C53.7984 30.4102 52.016 34.7366 53.5852 38.5043C55.1543 42.272 59.4806 44.0543 63.2483 42.4852Z" fill="#B01B23"></path><path d="M70.9567 91.1971C69.827 93.4251 68.2313 95.384 66.2779 96.941C64.3245 98.498 62.0591 99.6167 59.6353 100.221C57.2115 100.826 54.6861 100.902 52.2303 100.444C49.7745 99.9869 47.4458 99.0067 45.4022 97.5701C43.3585 96.1336 41.6478 94.2743 40.3859 92.1185C39.1241 89.9626 38.3406 87.5605 38.0888 85.0752C37.8369 82.59 38.1225 80.0795 38.9262 77.7143C39.7299 75.3491 41.0329 73.1845 42.7467 71.3671C43.7924 70.2512 44.9791 69.2763 46.2767 68.4671" stroke="#B01B23" stroke-width="6.98" stroke-linecap="round" stroke-linejoin="round"></path><path d="M77.9767 76.5371H58.3067V50.4571H61.5967L66.4467 75.5571" fill="#B01B23"></path><path d="M77.9767 76.5371H58.3067V50.4571H61.5967L66.4467 75.5571" stroke="#B01B23" stroke-width="6.98" stroke-linecap="round" stroke-linejoin="round"></path><path d="M59.2767 61.0971H79.3767" stroke="#B01B23" stroke-width="6.98" stroke-linecap="round" stroke-linejoin="round"></path><path d="M87.4068 93.9871L77.9767 76.5371" stroke="#B01B23" stroke-width="6.98" stroke-linecap="round" stroke-linejoin="round"></path></svg>