<svg xmlns="http://www.w3.org/2000/svg" width="126" height="126" viewBox="0 0 126 126" fill="none"><path d="M25.1 2.5H100.9C113.382 2.5 123.5 12.6184 123.5 25.1V100.9C123.5 113.382 113.382 123.5 100.9 123.5H25.1C12.6184 123.5 2.5 113.382 2.5 100.9V25.1C2.5 12.6184 12.6184 2.5 25.1 2.5Z" stroke="#B01B23" stroke-width="5"></path><path d="M35.2001 92.12C35.2475 92.999 35.6301 93.8263 36.2691 94.4317C36.9081 95.0372 37.7548 95.3746 38.6351 95.3746C39.5153 95.3746 40.3621 95.0372 41.0011 94.4317C41.6401 93.8263 42.0226 92.999 42.0701 92.12V84.35H35.2001V92.12Z" fill="#B01B23"></path><path d="M81.3401 30H47.4201C44.4291 30.0105 41.5461 31.1194 39.319 33.1161C37.092 35.1127 35.676 37.8579 35.3401 40.83H32.6701C32.0337 39.8903 31.1119 39.1801 30.0409 38.8044C28.9699 38.4288 27.8065 38.4075 26.7225 38.7438C25.6385 39.0801 24.6915 39.7562 24.0211 40.672C23.3508 41.5879 22.9929 42.6951 23.0001 43.83V44.98C22.9929 46.115 23.3508 47.2221 24.0211 48.138C24.6915 49.0539 25.6385 49.7299 26.7225 50.0662C27.8065 50.4025 28.9699 50.3812 30.0409 50.0056C31.1119 49.6299 32.0337 48.9198 32.6701 47.98H35.2501V77.08H42.1201V47.98H50.7401V44.57C50.7401 44.0872 50.6449 43.6092 50.4598 43.1632C50.2747 42.7173 50.0035 42.3123 49.6617 41.9714C49.3198 41.6305 48.914 41.3603 48.4676 41.1765C48.0212 40.9926 47.5429 40.8987 47.0601 40.9H42.6201C43.1516 39.481 44.1658 38.2944 45.4848 37.5483C46.8037 36.8023 48.3432 36.5445 49.8333 36.82C51.3234 37.0956 52.6688 37.887 53.6337 39.0555C54.5986 40.2239 55.1213 41.6947 55.1101 43.21V77.08H93.5601V42.28C93.5693 40.6698 93.26 39.0738 92.6499 37.5836C92.0398 36.0935 91.141 34.7388 90.0052 33.5974C88.8694 32.4561 87.5191 31.5506 86.032 30.9332C84.5448 30.3158 82.9503 29.9987 81.3401 30Z" fill="#B01B23"></path><path d="M55.0601 92.12C55.0601 93.0297 55.4215 93.9021 56.0647 94.5454C56.708 95.1886 57.5804 95.55 58.4901 95.55H90.0801C90.5309 95.5513 90.9775 95.4635 91.3943 95.2916C91.811 95.1197 92.1897 94.8671 92.5085 94.5483C92.8272 94.2296 93.0798 93.8509 93.2517 93.4342C93.4236 93.0174 93.5115 92.5708 93.5101 92.12V84.35H55.0601V92.12Z" fill="#B01B23"></path></svg>