<svg xmlns="http://www.w3.org/2000/svg" width="54" height="53" viewBox="0 0 54 53" fill="none"><path d="M51.1 14.3002C51.3508 14.2989 51.5995 14.3469 51.8317 14.4417C52.0639 14.5365 52.2752 14.6761 52.4535 14.8525C52.6318 15.0289 52.7736 15.2388 52.8708 15.47C52.968 15.7012 53.0187 15.9493 53.02 16.2002C53.0187 16.451 52.968 16.6991 52.8708 16.9303C52.7736 17.1616 52.6318 17.3714 52.4535 17.5478C52.2752 17.7243 52.0639 17.8639 51.8317 17.9586C51.5995 18.0534 51.3508 18.1015 51.1 18.1002C50.8492 18.1015 50.6005 18.0534 50.3683 17.9586C50.1361 17.8639 49.9248 17.7243 49.7465 17.5478C49.5682 17.3714 49.4264 17.1616 49.3292 16.9303C49.232 16.6991 49.1813 16.451 49.18 16.2002C49.173 15.947 49.218 15.6952 49.3122 15.4602C49.4065 15.2251 49.548 15.012 49.728 14.8338C49.908 14.6557 50.1226 14.5165 50.3586 14.4247C50.5946 14.3329 50.847 14.2905 51.1 14.3002Z" fill="#9BC9FF"></path><path d="M6.85998 46.8001C7.19117 46.7948 7.52009 46.8556 7.82748 46.979C8.13487 47.1024 8.41456 47.2858 8.65017 47.5186C8.88577 47.7514 9.07256 48.0289 9.1996 48.3348C9.32663 48.6407 9.39136 48.9689 9.38998 49.3001C9.39136 49.6314 9.32663 49.9595 9.1996 50.2654C9.07256 50.5713 8.88577 50.8488 8.65017 51.0816C8.41456 51.3144 8.13487 51.4979 7.82748 51.6213C7.52009 51.7446 7.19117 51.8055 6.85998 51.8001C6.52963 51.8041 6.2018 51.7423 5.89557 51.6183C5.58934 51.4944 5.31084 51.3107 5.0763 51.078C4.84176 50.8453 4.65587 50.5683 4.52946 50.2631C4.40304 49.9578 4.33864 49.6305 4.33999 49.3001C4.33864 48.9698 4.40304 48.6424 4.52946 48.3372C4.65587 48.0319 4.84176 47.7549 5.0763 47.5222C5.31084 47.2896 5.58934 47.1059 5.89557 46.9819C6.2018 46.8579 6.52963 46.7961 6.85998 46.8001Z" fill="#9BC9FF"></path><path d="M19.49 3.69996C20.1508 3.69335 20.8064 3.81779 21.4188 4.06611C22.0312 4.31442 22.5883 4.68166 23.0579 5.14661C23.5275 5.61156 23.9003 6.165 24.1547 6.77491C24.4091 7.38482 24.54 8.03912 24.54 8.69996C24.54 9.36079 24.4091 10.0151 24.1547 10.625C23.9003 11.2349 23.5275 11.7883 23.0579 12.2533C22.5883 12.7183 22.0312 13.0855 21.4188 13.3338C20.8064 13.5821 20.1508 13.7066 19.49 13.7C18.1639 13.7 16.8921 13.1732 15.9545 12.2355C15.0168 11.2978 14.49 10.026 14.49 8.69996C14.49 7.37387 15.0168 6.10212 15.9545 5.16443C16.8921 4.22675 18.1639 3.69996 19.49 3.69996Z" fill="#9BC9FF"></path><path d="M46.66 8.5C47.0435 10.4668 46.9591 12.4963 46.4136 14.4244C45.8682 16.3526 44.877 18.1255 43.52 19.6C42.0943 21.0122 40.3537 22.0659 38.4414 22.6743C36.5291 23.2828 34.4997 23.4287 32.52 23.1C32.132 21.134 32.2132 19.1043 32.7571 17.1756C33.3009 15.2469 34.2921 13.4737 35.65 12C38.48 9.1 42.92 11.5 46.66 8.5Z" fill="#9BC9FF"></path><path d="M51.4 2.50006C51.519 2.49873 51.6372 2.52106 51.7475 2.5657C51.8579 2.61034 51.9583 2.67639 52.0429 2.7601C52.1275 2.8438 52.1947 2.94349 52.2406 3.05334C52.2864 3.16319 52.31 3.28104 52.31 3.40008C52.31 3.51912 52.2864 3.63697 52.2406 3.74682C52.1947 3.85667 52.1275 3.95633 52.0429 4.04003C51.9583 4.12374 51.8579 4.18982 51.7475 4.23446C51.6372 4.2791 51.519 4.3014 51.4 4.30007C51.281 4.3014 51.1629 4.2791 51.0525 4.23446C50.9422 4.18982 50.8418 4.12374 50.7571 4.04003C50.6725 3.95633 50.6053 3.85667 50.5595 3.74682C50.5136 3.63697 50.49 3.51912 50.49 3.40008C50.39 2.90008 50.9 2.50006 51.4 2.50006Z" fill="#21337B" fill-opacity="0.901961"></path><path d="M50.76 45.0002C50.879 44.9989 50.9971 45.0212 51.1075 45.0658C51.2178 45.1104 51.3182 45.1765 51.4029 45.2602C51.4875 45.3439 51.5547 45.4436 51.6005 45.5534C51.6464 45.6633 51.67 45.7812 51.67 45.9002C51.67 46.0192 51.6464 46.1371 51.6005 46.2469C51.5547 46.3568 51.4875 46.4564 51.4029 46.5401C51.3182 46.6238 51.2178 46.6899 51.1075 46.7346C50.9971 46.7792 50.879 46.8015 50.76 46.8002C50.641 46.8015 50.5229 46.7792 50.4125 46.7346C50.3022 46.6899 50.2018 46.6238 50.1171 46.5401C50.0325 46.4564 49.9653 46.3568 49.9195 46.2469C49.8736 46.1371 49.85 46.0192 49.85 45.9002C49.8409 45.7788 49.8582 45.6569 49.9008 45.5428C49.9435 45.4288 50.0104 45.3254 50.0969 45.2398C50.1835 45.1542 50.2876 45.0885 50.4021 45.0471C50.5166 45.0057 50.6387 44.9897 50.76 45.0002Z" fill="#21337B" fill-opacity="0.901961"></path><path d="M37.47 50.6002C37.7087 50.6002 37.9376 50.695 38.1064 50.8638C38.2752 51.0325 38.37 51.2615 38.37 51.5002C38.37 51.7389 38.2752 51.9678 38.1064 52.1366C37.9376 52.3053 37.7087 52.4002 37.47 52.4002C37.351 52.4015 37.2329 52.3792 37.1225 52.3345C37.0122 52.2899 36.9118 52.2238 36.8271 52.1401C36.7425 52.0564 36.6753 51.9568 36.6295 51.8469C36.5836 51.7371 36.56 51.6192 36.56 51.5002C36.56 51.3811 36.5836 51.2633 36.6295 51.1534C36.6753 51.0436 36.7425 50.9439 36.8271 50.8602C36.9118 50.7765 37.0122 50.7104 37.1225 50.6658C37.2329 50.6211 37.351 50.5988 37.47 50.6002Z" fill="#21337B" fill-opacity="0.901961"></path><path d="M33.12 5.55005e-05C33.239 -0.00126712 33.3571 0.0210621 33.4675 0.0656988C33.5778 0.110336 33.6782 0.176391 33.7629 0.260096C33.8475 0.343801 33.9147 0.443489 33.9605 0.553339C34.0064 0.663189 34.03 0.781044 34.03 0.90008C34.03 1.01912 34.0064 1.13697 33.9605 1.24682C33.9147 1.35667 33.8475 1.45633 33.7629 1.54003C33.6782 1.62374 33.5778 1.68982 33.4675 1.73446C33.3571 1.7791 33.239 1.8014 33.12 1.80007C33.001 1.8014 32.8829 1.7791 32.7725 1.73446C32.6622 1.68982 32.5618 1.62374 32.4771 1.54003C32.3925 1.45633 32.3253 1.35667 32.2794 1.24682C32.2336 1.13697 32.21 1.01912 32.21 0.90008C32.11 0.40008 32.52 5.55005e-05 33.12 5.55005e-05Z" fill="#21337B" fill-opacity="0.901961"></path><path d="M26.76 15.6002C26.879 15.5988 26.9971 15.6211 27.1075 15.6658C27.2178 15.7104 27.3182 15.7765 27.4029 15.8602C27.4875 15.9439 27.5547 16.0436 27.6006 16.1534C27.6464 16.2633 27.67 16.3811 27.67 16.5001C27.67 16.6192 27.6464 16.737 27.6006 16.8469C27.5547 16.9567 27.4875 17.0564 27.4029 17.1401C27.3182 17.2238 27.2178 17.2899 27.1075 17.3345C26.9971 17.3792 26.879 17.4015 26.76 17.4002C26.641 17.4015 26.5229 17.3792 26.4125 17.3345C26.3022 17.2899 26.2018 17.2238 26.1171 17.1401C26.0325 17.0564 25.9653 16.9567 25.9195 16.8469C25.8736 16.737 25.85 16.6192 25.85 16.5001C25.85 16.3811 25.8736 16.2633 25.9195 16.1534C25.9653 16.0436 26.0325 15.9439 26.1171 15.8602C26.2018 15.7765 26.3022 15.7104 26.4125 15.6658C26.5229 15.6211 26.641 15.5988 26.76 15.6002Z" fill="#21337B" fill-opacity="0.901961"></path><path d="M17.97 50.0003C18.089 49.999 18.2072 50.0213 18.3175 50.0659C18.4279 50.1105 18.5283 50.1766 18.6129 50.2603C18.6975 50.344 18.7647 50.4437 18.8106 50.5535C18.8564 50.6634 18.88 50.7812 18.88 50.9003C18.88 51.0193 18.8564 51.1372 18.8106 51.247C18.7647 51.3569 18.6975 51.4565 18.6129 51.5402C18.5283 51.6239 18.4279 51.69 18.3175 51.7347C18.2072 51.7793 18.089 51.8016 17.97 51.8003C17.851 51.8016 17.7329 51.7793 17.6225 51.7347C17.5122 51.69 17.4118 51.6239 17.3271 51.5402C17.2425 51.4565 17.1753 51.3569 17.1295 51.247C17.0836 51.1372 17.06 51.0193 17.06 50.9003C17.0526 50.7793 17.0711 50.6581 17.1143 50.5449C17.1576 50.4316 17.2245 50.3289 17.3107 50.2437C17.3969 50.1585 17.5003 50.0926 17.614 50.0507C17.7277 50.0087 17.8491 49.9915 17.97 50.0003Z" fill="#21337B" fill-opacity="0.901961"></path><path d="M5.96 5.6001C6.07819 5.6001 6.19523 5.62338 6.30442 5.66861C6.41361 5.71384 6.51283 5.78014 6.5964 5.86371C6.67997 5.94728 6.74627 6.04651 6.7915 6.1557C6.83673 6.26489 6.86 6.3819 6.86 6.50009C6.86 6.73879 6.76518 6.96772 6.5964 7.13651C6.42762 7.30529 6.1987 7.40012 5.96 7.40012C5.84097 7.40144 5.72287 7.37911 5.61252 7.33447C5.50217 7.28984 5.40177 7.22378 5.31713 7.14008C5.2325 7.05637 5.16531 6.95668 5.11945 6.84683C5.0736 6.73698 5.05 6.61913 5.05 6.50009C4.95 6.00009 5.45 5.6001 5.96 5.6001Z" fill="#21337B" fill-opacity="0.901961"></path><path d="M0.910004 36.7999C1.1487 36.7999 1.37762 36.8947 1.5464 37.0635C1.71518 37.2323 1.81001 37.4612 1.81001 37.6999C1.81001 37.9385 1.71518 38.1675 1.5464 38.3363C1.37762 38.505 1.1487 38.5998 0.910004 38.5998C0.790975 38.6012 0.672865 38.5789 0.562515 38.5342C0.452165 38.4896 0.351763 38.4235 0.267128 38.3398C0.182493 38.2561 0.115311 38.1564 0.069458 38.0466C0.0236047 37.9367 -7.34641e-06 37.8189 1.71454e-09 37.6999C-7.34641e-06 37.5808 0.0236047 37.463 0.069458 37.3531C0.115311 37.2433 0.182493 37.1436 0.267128 37.0599C0.351763 36.9762 0.452165 36.9101 0.562515 36.8655C0.672865 36.8208 0.790975 36.7985 0.910004 36.7999Z" fill="#21337B" fill-opacity="0.901961"></path><path d="M31.2 43.6999C27.7255 43.6981 24.2857 43.0079 21.0795 41.6691C17.8732 40.3303 14.9641 38.3695 12.52 35.8999C12.4226 35.7701 12.37 35.6122 12.37 35.4499C12.37 35.2876 12.4226 35.1297 12.52 34.9999C12.6514 34.9017 12.811 34.8486 12.975 34.8486C13.139 34.8486 13.2986 34.9017 13.43 34.9999C15.756 37.3464 18.5241 39.2086 21.5742 40.4787C24.6243 41.7489 27.896 42.4019 31.2 42.3999C31.3571 42.4091 31.5055 42.475 31.6176 42.5854C31.7298 42.6957 31.7982 42.843 31.81 42.9999C31.8184 43.1728 31.7596 43.3422 31.6459 43.4727C31.5322 43.6032 31.3724 43.6846 31.2 43.6999Z" fill="#21337B" fill-opacity="0.901961"></path><path d="M33.83 46.9999C32.83 46.9999 31.71 46.8999 30.7 46.7999C30.6192 46.7904 30.5413 46.7643 30.4711 46.7233C30.4009 46.6822 30.3399 46.6271 30.292 46.5614C30.2441 46.4957 30.2104 46.4207 30.1928 46.3413C30.1752 46.2619 30.1743 46.1797 30.19 46.0999C30.202 46.0196 30.2302 45.9426 30.2728 45.8735C30.3154 45.8044 30.3716 45.7447 30.438 45.6979C30.5044 45.6512 30.5795 45.6184 30.6589 45.6016C30.7384 45.5847 30.8204 45.5841 30.9 45.5999C33.7507 46.0824 36.6752 45.8806 39.4326 45.0113C42.19 44.142 44.7015 42.63 46.76 40.5999C48.615 38.6323 49.997 36.2677 50.801 33.6859C51.605 31.104 51.8099 28.3728 51.4 25.6999C48.68 27.4999 45.75 27.6999 43.22 27.8999C40.39 28.0999 37.97 28.2999 35.95 30.2999C33.9474 32.4097 32.5067 34.9885 31.76 37.7999C31.7054 37.9602 31.5895 38.0923 31.4376 38.1672C31.2858 38.2422 31.1105 38.254 30.95 38.1999C30.871 38.1739 30.798 38.1326 30.7351 38.0782C30.6721 38.0239 30.6206 37.9576 30.5834 37.8832C30.5462 37.8089 30.5241 37.7279 30.5184 37.6449C30.5127 37.562 30.5234 37.4787 30.55 37.3999C31.3263 34.3483 32.8921 31.5547 35.09 29.2999C37.41 26.9999 40.34 26.7999 43.17 26.5999C46 26.3999 48.93 26.1999 51.55 24.0999C51.76 23.9999 51.96 23.8999 52.16 23.9999C52.2636 24.0425 52.3547 24.1107 52.4247 24.1982C52.4947 24.2856 52.5413 24.3895 52.56 24.4999C53.1615 27.5143 53.0362 30.6286 52.1945 33.5849C51.3529 36.5412 49.819 39.2544 47.72 41.4999C45.8828 43.2887 43.7094 44.6958 41.3254 45.6398C38.9413 46.5838 36.3938 47.0461 33.83 46.9999Z" fill="#21337B" fill-opacity="0.901961"></path><path d="M34.54 23.8C33.8319 23.8167 33.1234 23.7833 32.42 23.7C32.3528 23.7042 32.2854 23.6943 32.2222 23.6708C32.1591 23.6473 32.1016 23.6108 32.0535 23.5637C32.0054 23.5165 31.9678 23.4598 31.943 23.3971C31.9183 23.3344 31.9071 23.2673 31.91 23.2C31.4807 21.1414 31.5596 19.0092 32.1399 16.988C32.7201 14.9668 33.7842 13.1174 35.24 11.6C36.86 9.99995 38.88 9.79996 40.8 9.69996C42.787 9.76179 44.7385 9.16401 46.35 7.99995C46.4365 7.93627 46.5369 7.89401 46.643 7.87663C46.749 7.85924 46.8576 7.86726 46.96 7.89997C47.0636 7.94252 47.1547 8.01074 47.2247 8.09821C47.2947 8.18569 47.3412 8.28953 47.36 8.39997C47.7893 10.4586 47.7104 12.5907 47.1301 14.6119C46.5499 16.6332 45.4858 18.4825 44.03 19.9999C42.784 21.2376 41.3016 22.2118 39.6713 22.8646C38.0409 23.5175 36.2958 23.8356 34.54 23.8ZM33.02 22.4999C33.5222 22.583 34.0313 22.6165 34.54 22.6C36.133 22.631 37.7156 22.3366 39.1909 21.7347C40.6662 21.1329 42.0032 20.2364 43.12 19.1C44.3216 17.8531 45.2269 16.3517 45.7688 14.707C46.3107 13.0624 46.4751 11.3169 46.25 9.59995C44.6088 10.4878 42.7656 10.9357 40.9 10.9C38.98 11 37.36 11.1 36.15 12.4C34.872 13.7196 33.9227 15.3215 33.3789 17.0762C32.8352 18.8309 32.7122 20.6889 33.02 22.4999Z" fill="#21337B" fill-opacity="0.901961"></path><path d="M26.56 47.1002C22.9851 47.1659 19.4338 46.5089 16.1191 45.1686C12.8043 43.8283 9.79446 41.8322 7.27001 39.3002C1.41001 33.3002 -1.01 24.6002 0.600002 15.7002C0.619707 15.5887 0.667777 15.4841 0.739582 15.3966C0.811386 15.309 0.904512 15.2414 1.01001 15.2002C1.1107 15.1675 1.21779 15.1595 1.32222 15.1769C1.42664 15.1944 1.52535 15.2366 1.61 15.3002C5.45 18.4002 9.61001 18.6002 13.53 18.9002C17.67 19.2002 21.61 19.5002 24.74 22.7002C28.6991 26.7268 31.1681 31.9822 31.74 37.6002C32.0383 40.5003 31.9373 43.4276 31.44 46.3002C31.4305 46.4314 31.3734 46.5545 31.2795 46.6465C31.1856 46.7386 31.0613 46.7932 30.93 46.8002C29.482 47.001 28.0219 47.1012 26.56 47.1002ZM1.56001 16.8002C0.911477 20.648 1.16751 24.5938 2.30784 28.3255C3.44817 32.0572 5.44149 35.4722 8.13001 38.3002C10.5364 40.7092 13.4052 42.6066 16.5638 43.8783C19.7225 45.15 23.1057 45.7698 26.51 45.7002C27.72 45.7002 28.93 45.6002 30.14 45.5002C30.5632 42.8881 30.6338 40.2311 30.35 37.6002C29.7707 32.3054 27.4614 27.3495 23.78 23.5002C20.95 20.6002 17.32 20.4002 13.38 20.1002C9.69 19.8002 5.55 19.5002 1.61 16.8002H1.56001Z" fill="#21337B" fill-opacity="0.901961"></path><path d="M19.49 14.3003C18.7503 14.3055 18.0168 14.1647 17.3317 13.8859C16.6465 13.6071 16.0231 13.1957 15.4973 12.6754C14.9714 12.1552 14.5535 11.5362 14.2674 10.8541C13.9813 10.1719 13.8326 9.43997 13.83 8.70025C13.8326 7.96052 13.9813 7.2286 14.2674 6.54644C14.5535 5.86428 14.9714 5.24533 15.4973 4.72506C16.0231 4.20479 16.6465 3.79343 17.3317 3.51461C18.0168 3.23579 18.7503 3.09497 19.49 3.10024C20.2293 3.09497 20.9622 3.23585 21.6468 3.51479C22.3315 3.79373 22.9542 4.20523 23.4792 4.72564C24.0043 5.24604 24.4213 5.8651 24.7063 6.5472C24.9913 7.2293 25.1387 7.96099 25.14 8.70025C25.1387 9.4395 24.9913 10.1712 24.7063 10.8533C24.4213 11.5354 24.0043 12.1545 23.4792 12.6749C22.9542 13.1953 22.3315 13.6068 21.6468 13.8857C20.9622 14.1646 20.2293 14.3055 19.49 14.3003ZM19.49 4.30025C18.3201 4.30281 17.1983 4.76593 16.3674 5.58941C15.5364 6.41288 15.0632 7.53045 15.05 8.70025C15.0632 9.87004 15.5364 10.9876 16.3674 11.8111C17.1983 12.6346 18.3201 13.0977 19.49 13.1002C20.6591 13.0951 21.7794 12.6311 22.6098 11.8082C23.4402 10.9853 23.9143 9.86923 23.93 8.70025C23.9143 7.53126 23.4402 6.4152 22.6098 5.59228C21.7794 4.76935 20.6591 4.30539 19.49 4.30025Z" fill="#21337B" fill-opacity="0.901961"></path><path d="M6.86001 52.5003C6.04026 52.4925 5.2563 52.1634 4.67662 51.5837C4.09694 51.004 3.76783 50.22 3.76001 49.4003C3.76792 48.5754 4.10117 47.7869 4.6873 47.2064C5.27344 46.6259 6.06505 46.3003 6.89001 46.3003C7.7159 46.3002 8.50857 46.6255 9.0963 47.2058C9.68403 47.786 10.0195 48.5745 10.03 49.4003C10.0042 50.2264 9.65981 51.0104 9.06891 51.5883C8.47801 52.1661 7.68646 52.4929 6.86001 52.5003ZM6.86001 47.5003C6.60966 47.499 6.36151 47.5471 6.12984 47.642C5.89816 47.7369 5.68753 47.8767 5.51004 48.0532C5.33255 48.2298 5.1917 48.4397 5.09559 48.6709C4.99948 48.902 4.95001 49.1499 4.95001 49.4003C4.95001 49.6506 4.99948 49.8985 5.09559 50.1297C5.1917 50.3609 5.33255 50.5708 5.51004 50.7473C5.68753 50.9239 5.89816 51.0636 6.12984 51.1585C6.36151 51.2534 6.60966 51.3016 6.86001 51.3003C7.36311 51.2977 7.84486 51.0966 8.20061 50.7409C8.55636 50.3851 8.75738 49.9034 8.76001 49.4003C8.75738 48.8972 8.55636 48.4154 8.20061 48.0597C7.84486 47.7039 7.36311 47.5029 6.86001 47.5003Z" fill="#21337B" fill-opacity="0.901961"></path><path d="M51.1 18.7C50.7688 18.7054 50.4399 18.6445 50.1325 18.5212C49.8251 18.3978 49.5454 18.2143 49.3098 17.9815C49.0742 17.7487 48.8874 17.4712 48.7604 17.1653C48.6334 16.8594 48.5686 16.5313 48.57 16.2C48.5686 15.8688 48.6334 15.5406 48.7604 15.2347C48.8874 14.9288 49.0742 14.6513 49.3098 14.4185C49.5454 14.1857 49.8251 14.0023 50.1325 13.8789C50.4399 13.7555 50.7688 13.6947 51.1 13.7C51.4303 13.696 51.7582 13.7578 52.0644 13.8818C52.3706 14.0058 52.6491 14.1895 52.8837 14.4222C53.1182 14.6548 53.3041 14.9318 53.4305 15.2371C53.5569 15.5423 53.6214 15.8697 53.62 16.2C53.6071 16.8625 53.3368 17.4939 52.8664 17.9605C52.396 18.4271 51.7625 18.6924 51.1 18.7ZM51.1 15C50.7507 14.9973 50.4143 15.1321 50.1636 15.3754C49.9128 15.6186 49.7679 15.9508 49.76 16.3C49.7677 16.6441 49.9085 16.9718 50.1528 17.2142C50.3971 17.4566 50.7259 17.5949 51.07 17.6C51.4141 17.5949 51.7429 17.4566 51.9872 17.2142C52.2315 16.9718 52.3723 16.6441 52.38 16.3C52.375 15.9602 52.2392 15.6354 52.0007 15.3933C51.7623 15.1511 51.4397 15.0103 51.1 15Z" fill="#21337B" fill-opacity="0.901961"></path></svg>