<svg xmlns="http://www.w3.org/2000/svg" width="53" height="55" viewBox="0 0 53 55" fill="none"><path d="M47.97 28.7999C48.795 28.7999 49.5866 29.1255 50.1727 29.706C50.7588 30.2865 51.0921 31.075 51.1 31.8999C51.0921 32.7248 50.7588 33.5133 50.1727 34.0938C49.5866 34.6743 48.795 35 47.97 34.9999C47.145 35 46.3534 34.6743 45.7673 34.0938C45.1812 33.5133 44.8479 32.7248 44.84 31.8999C44.8359 31.4891 44.9143 31.0817 45.0705 30.7018C45.2267 30.3219 45.4576 29.9772 45.7495 29.6881C46.0414 29.399 46.3883 29.1715 46.7697 29.0189C47.1511 28.8663 47.5593 28.7919 47.97 28.7999Z" fill="#9BC9FF"></path><path d="M5.34998 6.2999C5.97066 6.29595 6.58603 6.41447 7.16085 6.64866C7.73567 6.88284 8.25865 7.22808 8.69986 7.66465C9.14108 8.10121 9.49185 8.62054 9.7321 9.19284C9.97235 9.76515 10.0974 10.3792 10.1 10.9999C10.0974 11.6206 9.97235 12.2347 9.7321 12.807C9.49185 13.3793 9.14108 13.8986 8.69986 14.3352C8.25865 14.7717 7.73567 15.117 7.16085 15.3512C6.58603 15.5854 5.97066 15.7039 5.34998 15.6999C4.73014 15.7026 4.11585 15.5831 3.54219 15.3483C2.96853 15.1135 2.44672 14.768 2.00657 14.3316C1.56642 13.8952 1.21654 13.3763 0.976913 12.8047C0.737287 12.233 0.612606 11.6198 0.609985 10.9999C0.612606 10.3801 0.737287 9.76682 0.976913 9.19516C1.21654 8.62351 1.56642 8.10465 2.00657 7.66822C2.44672 7.23178 2.96853 6.8863 3.54219 6.65152C4.11585 6.41675 4.73014 6.29727 5.34998 6.2999Z" fill="#9BC9FF"></path><path d="M37.06 21.7001C38.0554 23.2516 38.5831 25.0568 38.58 26.9001C38.554 28.4777 38.2171 30.0347 37.5886 31.482C36.9601 32.9293 36.0523 34.2384 34.9173 35.3345C33.7822 36.4305 32.4422 37.2919 30.9738 37.8694C29.5054 38.447 27.9376 38.7292 26.36 38.7001C24.7841 38.687 23.2262 38.3636 21.7753 37.7485C20.3244 37.1333 19.0089 36.2384 17.9039 35.1148C16.7988 33.9912 15.926 32.6609 15.335 31.2C14.7441 29.739 14.4468 28.176 14.46 26.6001C14.56 20.5001 22.74 14.0001 26.88 7.6001C27.88 9.2001 29.21 10.9001 30.52 12.6001C32.82 15.7001 35.46 18.8001 37.06 21.7001Z" fill="#9BC9FF"></path><path d="M52.01 18.7999C52.129 18.7985 52.2471 18.8209 52.3575 18.8655C52.4678 18.9101 52.5682 18.9762 52.6528 19.0599C52.7375 19.1436 52.8047 19.2433 52.8505 19.3531C52.8964 19.463 52.92 19.5808 52.92 19.6999C52.92 19.8189 52.8964 19.9368 52.8505 20.0466C52.8047 20.1565 52.7375 20.2561 52.6528 20.3398C52.5682 20.4235 52.4678 20.4896 52.3575 20.5343C52.2471 20.5789 52.129 20.6012 52.01 20.5999C51.891 20.6012 51.7728 20.5789 51.6625 20.5343C51.5521 20.4896 51.4517 20.4235 51.3671 20.3398C51.2825 20.2561 51.2153 20.1565 51.1694 20.0466C51.1236 19.9368 51.1 19.8189 51.1 19.6999C51.1 19.5808 51.1236 19.463 51.1694 19.3531C51.2153 19.2433 51.2825 19.1436 51.3671 19.0599C51.4517 18.9762 51.5521 18.9101 51.6625 18.8655C51.7728 18.8209 51.891 18.7985 52.01 18.7999Z" fill="#21337B" fill-opacity="0.901961"></path><path d="M49.46 53.1002C49.579 53.0988 49.6971 53.1211 49.8075 53.1658C49.9178 53.2104 50.0182 53.2765 50.1029 53.3602C50.1875 53.4439 50.2547 53.5436 50.3005 53.6534C50.3464 53.7633 50.37 53.8811 50.37 54.0001C50.37 54.1192 50.3464 54.237 50.3005 54.3469C50.2547 54.4567 50.1875 54.5564 50.1029 54.6401C50.0182 54.7238 49.9178 54.7899 49.8075 54.8345C49.6971 54.8792 49.579 54.9015 49.46 54.9001C49.341 54.9015 49.2229 54.8792 49.1125 54.8345C49.0022 54.7899 48.9018 54.7238 48.8171 54.6401C48.7325 54.5564 48.6653 54.4567 48.6194 54.3469C48.5736 54.237 48.55 54.1192 48.55 54.0001C48.55 53.8811 48.5736 53.7633 48.6194 53.6534C48.6653 53.5436 48.7325 53.4439 48.8171 53.3602C48.9018 53.2765 49.0022 53.2104 49.1125 53.1658C49.2229 53.1211 49.341 53.0988 49.46 53.1002Z" fill="#21337B" fill-opacity="0.901961"></path><path d="M45.75 5.5571e-05C45.869 -0.00126705 45.9871 0.0210317 46.0975 0.0656684C46.2078 0.110305 46.3082 0.176391 46.3929 0.260096C46.4775 0.343801 46.5447 0.443459 46.5905 0.553309C46.6364 0.663159 46.66 0.781014 46.66 0.900049C46.66 1.01909 46.6364 1.13694 46.5905 1.24679C46.5447 1.35664 46.4775 1.4563 46.3929 1.54C46.3082 1.62371 46.2078 1.68979 46.0975 1.73443C45.9871 1.77907 45.869 1.80137 45.75 1.80004C45.631 1.80137 45.5128 1.77907 45.4025 1.73443C45.2921 1.68979 45.1918 1.62371 45.1071 1.54C45.0225 1.4563 44.9553 1.35664 44.9094 1.24679C44.8636 1.13694 44.84 1.01909 44.84 0.900049C44.74 0.400049 45.14 5.5571e-05 45.75 5.5571e-05Z" fill="#21337B" fill-opacity="0.901961"></path><path d="M41.31 35.0001C41.5487 35.0001 41.7776 35.0949 41.9464 35.2637C42.1152 35.4324 42.21 35.6614 42.21 35.9C42.21 36.1387 42.1152 36.3677 41.9464 36.5365C41.7776 36.7052 41.5487 36.8 41.31 36.8C41.191 36.8014 41.0729 36.7791 40.9625 36.7344C40.8522 36.6898 40.7518 36.6237 40.6671 36.54C40.5825 36.4563 40.5153 36.3566 40.4694 36.2468C40.4236 36.1369 40.4 36.0191 40.4 35.9C40.4 35.781 40.4236 35.6632 40.4694 35.5533C40.5153 35.4435 40.5825 35.3438 40.6671 35.2601C40.7518 35.1764 40.8522 35.1103 40.9625 35.0657C41.0729 35.021 41.191 34.9987 41.31 35.0001Z" fill="#21337B" fill-opacity="0.901961"></path><path d="M15.46 3.79986C15.579 3.79854 15.6971 3.82087 15.8075 3.8655C15.9178 3.91014 16.0182 3.9762 16.1029 4.0599C16.1875 4.14361 16.2547 4.24329 16.3005 4.35314C16.3464 4.46299 16.37 4.58085 16.37 4.69988C16.37 4.81892 16.3464 4.93678 16.3005 5.04663C16.2547 5.15648 16.1875 5.25613 16.1029 5.33984C16.0182 5.42354 15.9178 5.48963 15.8075 5.53427C15.6971 5.5789 15.579 5.6012 15.46 5.59988C15.341 5.6012 15.2228 5.5789 15.1125 5.53427C15.0021 5.48963 14.9018 5.42354 14.8171 5.33984C14.7325 5.25613 14.6653 5.15648 14.6194 5.04663C14.5736 4.93678 14.55 4.81892 14.55 4.69988C14.46 4.19988 14.85 3.79986 15.46 3.79986Z" fill="#21337B" fill-opacity="0.901961"></path><path d="M10.4 34.4002C10.519 34.3989 10.6371 34.4212 10.7475 34.4658C10.8578 34.5104 10.9582 34.5765 11.0429 34.6602C11.1275 34.7439 11.1947 34.8436 11.2406 34.9534C11.2864 35.0633 11.31 35.1811 11.31 35.3002C11.31 35.4192 11.2864 35.5371 11.2406 35.6469C11.1947 35.7568 11.1275 35.8565 11.0429 35.9402C10.9582 36.0239 10.8578 36.0899 10.7475 36.1346C10.6371 36.1792 10.519 36.2015 10.4 36.2002C10.281 36.2015 10.1629 36.1792 10.0525 36.1346C9.94218 36.0899 9.84178 36.0239 9.75714 35.9402C9.67251 35.8565 9.60532 35.7568 9.55946 35.6469C9.51361 35.5371 9.49 35.4192 9.49001 35.3002C9.48256 35.1792 9.50108 35.058 9.54431 34.9448C9.58755 34.8315 9.65451 34.7288 9.74069 34.6436C9.82688 34.5584 9.9303 34.4926 10.044 34.4506C10.1577 34.4086 10.2791 34.3914 10.4 34.4002Z" fill="#21337B" fill-opacity="0.901961"></path><path d="M4.03999 50.6002C4.15901 50.5988 4.27712 50.6211 4.38747 50.6658C4.49782 50.7104 4.59822 50.7765 4.68285 50.8602C4.76749 50.9439 4.83468 51.0436 4.88053 51.1534C4.92639 51.2633 4.94999 51.3811 4.94999 51.5001C4.951 51.7505 4.85809 51.9921 4.6896 52.1772C4.52111 52.3624 4.28931 52.4776 4.03999 52.5001C3.92096 52.5015 3.80285 52.4792 3.6925 52.4345C3.58215 52.3899 3.48175 52.3238 3.39711 52.2401C3.31248 52.1564 3.24529 52.0567 3.19944 51.9469C3.15358 51.837 3.12998 51.7192 3.12998 51.6002C3.12897 51.3498 3.22188 51.1082 3.39037 50.923C3.55886 50.7379 3.79066 50.6227 4.03999 50.6002Z" fill="#21337B" fill-opacity="0.901961"></path><path d="M0.91 22.5001C1.02903 22.4987 1.14713 22.521 1.25748 22.5657C1.36783 22.6103 1.46823 22.6764 1.55287 22.7601C1.6375 22.8438 1.70469 22.9435 1.75055 23.0533C1.7964 23.1632 1.82001 23.281 1.82 23.4C1.82001 23.5191 1.7964 23.6369 1.75055 23.7468C1.70469 23.8566 1.6375 23.9563 1.55287 24.04C1.46823 24.1237 1.36783 24.1898 1.25748 24.2344C1.14713 24.2791 1.02903 24.3014 0.91 24.3C0.790971 24.3014 0.672861 24.2791 0.562511 24.2344C0.452162 24.1898 0.351763 24.1237 0.267128 24.04C0.182493 23.9563 0.115304 23.8566 0.0694504 23.7468C0.0235971 23.6369 -7.34641e-06 23.5191 1.71509e-09 23.4C-7.34641e-06 23.281 0.0235971 23.1632 0.0694504 23.0533C0.115304 22.9435 0.182493 22.8438 0.267128 22.7601C0.351763 22.6764 0.452162 22.6103 0.562511 22.5657C0.672861 22.521 0.790971 22.4987 0.91 22.5001Z" fill="#21337B" fill-opacity="0.901961"></path><path d="M27.77 51.9002H26.06C20.094 51.8747 14.1427 51.3057 8.28 50.2002C3.13 49.1002 0.5 47.7002 0.5 45.9002C0.5 44.3002 3.03 42.9002 7.78 42.0002C13.2821 40.9985 18.8679 40.5297 24.46 40.6002H26.16C32.1227 40.6256 38.0706 41.1946 43.93 42.3002C49.08 43.4002 51.71 44.8002 51.71 46.6002C51.71 48.2002 49.18 49.6002 44.44 50.5002C38.9412 51.5009 33.3587 51.9697 27.77 51.9002ZM24.64 41.9002C19.159 41.8516 13.6845 42.2866 8.28 43.2002C3.28 44.2002 2.02 45.4002 2.02 45.9002C2.02 46.4002 3.43 47.8002 8.79 48.9002C14.548 50.0077 20.3965 50.5768 26.26 50.6002H27.98C33.4609 50.6483 38.9354 50.2133 44.34 49.3002C49.28 48.3002 50.6 47.1002 50.6 46.6002C50.6 46.1002 49.18 44.7002 43.83 43.6002C38.072 42.4932 32.2234 41.924 26.36 41.9002H24.64Z" fill="#21337B" fill-opacity="0.901961"></path><path d="M37.27 22.3H36.96C36.8047 22.2885 36.6587 22.2216 36.5486 22.1115C36.4385 22.0014 36.3715 21.8554 36.36 21.7001C36.3715 21.5448 36.4385 21.3988 36.5486 21.2887C36.6587 21.1785 36.8047 21.1116 36.96 21.1001H37.27C38.1279 21.1053 38.9784 20.9412 39.7728 20.6172C40.5671 20.2931 41.2897 19.8155 41.8991 19.2116C42.5086 18.6078 42.9928 17.8896 43.3241 17.0983C43.6555 16.3069 43.8274 15.458 43.83 14.6001C43.83 12.4001 41.71 9.90005 39.69 7.40005C38.88 6.40005 37.97 5.30004 37.27 4.30004C36.4889 5.41449 35.6442 6.48295 34.74 7.50006C33.23 9.30006 31.61 11.2001 31 13.0001C30.9376 13.1522 30.8221 13.2765 30.675 13.3501C30.5279 13.4236 30.3592 13.4414 30.2 13.4001C30.046 13.3394 29.9194 13.2248 29.8439 13.0775C29.7685 12.9302 29.7493 12.7605 29.79 12.6001C30.5 10.7001 32.22 8.70004 33.73 6.80004C34.73 5.50004 35.85 4.20006 36.66 3.00006C36.7076 2.90665 36.7809 2.82878 36.8712 2.77563C36.9616 2.72248 37.0652 2.69627 37.17 2.70007C37.2731 2.69818 37.3746 2.7253 37.463 2.77835C37.5514 2.83139 37.6232 2.90821 37.67 3.00006C38.46 4.20006 39.46 5.50004 40.46 6.80004C42.68 9.40004 44.9 12.2 44.9 14.8C44.9112 15.7991 44.7205 16.7901 44.3393 17.7137C43.9582 18.6372 43.3944 19.4743 42.6819 20.1746C41.9694 20.875 41.1228 21.4243 40.1928 21.7895C39.2628 22.1547 38.2687 22.3284 37.27 22.3Z" fill="#21337B" fill-opacity="0.901961"></path><path d="M26.56 39.3999H26.36C24.6831 39.3931 23.0242 39.0537 21.4794 38.4014C19.9345 37.7491 18.5344 36.7969 17.36 35.5999C16.1833 34.4186 15.2549 33.0137 14.6298 31.468C14.0046 29.9223 13.6953 28.267 13.72 26.5999C13.83 22.2999 17.56 17.9999 21.2 13.6999C22.9881 11.6643 24.6576 9.52741 26.2 7.29986C26.2468 7.20802 26.3186 7.13119 26.407 7.07815C26.4954 7.02511 26.5969 6.99799 26.7 6.99987C26.8048 6.99608 26.9084 7.02228 26.9988 7.07543C27.0891 7.12858 27.1624 7.20645 27.21 7.29986C28.2955 9.02905 29.4739 10.6982 30.74 12.2999L31.95 13.7999C34.0427 16.1733 35.8889 18.7532 37.46 21.4999C38.4371 23.1745 38.9898 25.0627 39.07 26.9999C39.0382 30.3108 37.6972 33.4746 35.34 35.7999C33.0027 38.111 29.8469 39.4049 26.56 39.3999ZM26.76 8.79986C25.3295 10.7915 23.78 12.695 22.12 14.4999C18.58 18.5999 15.05 22.7999 14.95 26.5999C14.9333 29.617 16.0917 32.5222 18.18 34.6999C19.2218 35.7902 20.4767 36.6546 21.8667 37.2395C23.2567 37.8244 24.7521 38.1173 26.26 38.0999H26.46C29.4571 38.1239 32.3414 36.9583 34.4804 34.8587C36.6193 32.7591 37.8383 29.8969 37.87 26.8999C37.7835 25.1661 37.2644 23.4816 36.36 21.9999C34.7848 19.3553 32.9919 16.8466 31 14.4999L29.79 12.9999C28.88 11.6999 27.77 10.2999 26.76 8.79986Z" fill="#21337B" fill-opacity="0.901961"></path><path d="M25.35 35.2999C24.3335 35.292 23.3286 35.0841 22.3925 34.6878C21.4565 34.2916 20.6076 33.7149 19.8945 32.9906C19.1813 32.2663 18.6178 31.4086 18.2361 30.4665C17.8544 29.5244 17.6621 28.5163 17.67 27.4999C17.6818 27.343 17.7502 27.1957 17.8623 27.0854C17.9745 26.9751 18.1229 26.9091 18.28 26.8999C18.437 26.9091 18.5854 26.9751 18.6976 27.0854C18.8098 27.1957 18.8781 27.343 18.89 27.4999C18.8844 29.2279 19.5589 30.8887 20.7676 32.1236C21.9763 33.3585 23.6223 34.0684 25.35 34.0999C25.507 34.1092 25.6554 34.1751 25.7676 34.2854C25.8798 34.3957 25.9481 34.543 25.96 34.6999C25.9629 34.7803 25.949 34.8605 25.9192 34.9352C25.8894 35.01 25.8444 35.0778 25.7871 35.1342C25.7297 35.1906 25.6612 35.2345 25.586 35.263C25.5107 35.2916 25.4303 35.3041 25.35 35.2999Z" fill="#21337B" fill-opacity="0.901961"></path><path d="M47.97 35.6001C47.4684 35.6027 46.9711 35.5065 46.5066 35.3169C46.0422 35.1274 45.6196 34.8482 45.263 34.4954C44.9064 34.1425 44.6228 33.7229 44.4284 33.2604C44.234 32.7979 44.1326 32.3017 44.13 31.8C44.1326 31.2984 44.234 30.8022 44.4284 30.3397C44.6228 29.8773 44.9064 29.4576 45.263 29.1048C45.6196 28.7519 46.0422 28.4727 46.5066 28.2832C46.9711 28.0936 47.4684 27.9974 47.97 28.0001C48.4717 27.9974 48.9689 28.0936 49.4334 28.2832C49.8979 28.4727 50.3204 28.7519 50.677 29.1048C51.0336 29.4576 51.3172 29.8773 51.5116 30.3397C51.706 30.8022 51.8074 31.2984 51.81 31.8C51.7868 32.8075 51.3735 33.7666 50.6572 34.4754C49.941 35.1842 48.9776 35.5874 47.97 35.6001ZM47.97 29.4C47.6405 29.3974 47.3137 29.4602 47.0087 29.5848C46.7036 29.7093 46.4263 29.8932 46.1928 30.1258C45.9593 30.3583 45.7743 30.6349 45.6486 30.9394C45.5228 31.244 45.4587 31.5705 45.46 31.9C45.4587 32.2304 45.5231 32.5578 45.6495 32.863C45.7759 33.1682 45.9618 33.4453 46.1963 33.6779C46.4309 33.9106 46.7094 34.0943 47.0156 34.2183C47.3218 34.3422 47.6497 34.404 47.98 34.4C48.307 34.3987 48.6305 34.333 48.9321 34.2067C49.2337 34.0803 49.5075 33.8958 49.7378 33.6637C49.9681 33.4315 50.1504 33.1563 50.2743 32.8537C50.3982 32.5511 50.4613 32.227 50.46 31.9C50.4449 31.2435 50.178 30.6179 49.7145 30.1525C49.2511 29.6872 48.6265 29.4178 47.97 29.4Z" fill="#21337B" fill-opacity="0.901961"></path><path d="M5.35 16.3002C3.94051 16.2976 2.58874 15.74 1.58741 14.748C0.586074 13.7561 0.0157756 12.4096 0 11.0002C0.0157756 9.59078 0.586074 8.24429 1.58741 7.25232C2.58874 6.26035 3.94051 5.70274 5.35 5.7002C6.76043 5.7027 8.11326 6.26001 9.11619 7.25171C10.1191 8.24341 10.6916 9.58987 10.71 11.0002C10.6916 12.4105 10.1191 13.757 9.11619 14.7487C8.11326 15.7404 6.76043 16.2977 5.35 16.3002ZM5.35 6.90018C4.2589 6.90013 3.21189 7.3308 2.43663 8.09857C1.66137 8.86634 1.22054 9.90913 1.21 11.0002C1.22054 12.0912 1.66137 13.134 2.43663 13.9018C3.21189 14.6696 4.2589 15.1002 5.35 15.1002C6.4359 15.0924 7.47525 14.6582 8.24405 13.8913C9.01284 13.1243 9.44954 12.0861 9.46 11.0002C9.43206 9.91988 8.98977 8.89169 8.2247 8.12848C7.45962 7.36527 6.43036 6.92548 5.35 6.90018Z" fill="#21337B" fill-opacity="0.901961"></path></svg>