<svg xmlns="http://www.w3.org/2000/svg" width="54" height="55" viewBox="0 0 54 55" fill="none"><path d="M44.74 6.8999C45.565 6.89986 46.3566 7.22548 46.9427 7.806C47.5289 8.38652 47.8621 9.17496 47.87 9.99988C47.8621 10.8248 47.5289 11.6132 46.9427 12.1938C46.3566 12.7743 45.565 13.0999 44.74 13.0999C43.9151 13.0999 43.1234 12.7743 42.5373 12.1938C41.9512 11.6132 41.6179 10.8248 41.61 9.99988C41.6179 9.17496 41.9512 8.38652 42.5373 7.806C43.1234 7.22548 43.9151 6.89986 44.74 6.8999Z" fill="#9BC9FF"></path><path d="M8.49002 0.600193C9.10986 0.597561 9.72416 0.717043 10.2978 0.951817C10.8715 1.18659 11.3933 1.53207 11.8334 1.96851C12.2736 2.40495 12.6235 2.9238 12.8631 3.49546C13.1027 4.06711 13.2274 4.68036 13.23 5.30021C13.2274 5.92005 13.1027 6.5333 12.8631 7.10495C12.6235 7.67661 12.2736 8.19546 11.8334 8.6319C11.3933 9.06834 10.8715 9.41379 10.2978 9.64856C9.72416 9.88334 9.10986 10.0028 8.49002 10.0002C7.86934 10.0041 7.25397 9.88565 6.67915 9.65146C6.10433 9.41728 5.58135 9.07201 5.14014 8.63544C4.69892 8.19887 4.34815 7.67958 4.10789 7.10727C3.86764 6.53496 3.74264 5.92089 3.74002 5.30021C3.74264 4.67952 3.86764 4.06545 4.10789 3.49314C4.34815 2.92083 4.69892 2.40151 5.14014 1.96494C5.58135 1.52837 6.10433 1.18313 6.67915 0.948948C7.25397 0.714766 7.86934 0.596243 8.49002 0.600193Z" fill="#9BC9FF"></path><path d="M44.44 43.2002C48.78 44.3002 51.44 45.9002 51.44 47.6002C51.44 51.1002 40.53 53.9002 27.1 53.9002C13.67 53.9002 2.76001 51.1002 2.76001 47.6002C2.76001 45.9002 5.39001 44.4002 9.76001 43.2002C10.3155 43.8498 10.9243 44.4519 11.58 45.0002H42.58C43.27 44.4002 43.83 43.8002 44.44 43.2002Z" fill="#9BC9FF"></path><path d="M37.07 32.2002C37.0679 36.8115 35.5812 41.2996 32.83 45.0002H21.27C18.5756 41.2728 17.1078 36.7993 17.07 32.2002C17.0906 29.4218 17.6404 26.6728 18.69 24.1002C20.4726 19.9281 23.3725 16.3293 27.07 13.7002C30.7675 16.3293 33.6674 19.9281 35.45 24.1002C36.5478 26.658 37.0995 29.4169 37.07 32.2002Z" fill="#9BC9FF"></path><path d="M52.62 31.9C52.7391 31.8986 52.8571 31.9209 52.9675 31.9656C53.0778 32.0102 53.1783 32.0763 53.2629 32.16C53.3475 32.2437 53.4147 32.3434 53.4606 32.4532C53.5064 32.5631 53.53 32.6809 53.53 32.8C53.53 32.919 53.5064 33.0368 53.4606 33.1467C53.4147 33.2565 53.3475 33.3562 53.2629 33.4399C53.1783 33.5236 53.0778 33.5897 52.9675 33.6343C52.8571 33.679 52.7391 33.7013 52.62 33.6999C52.501 33.7013 52.3829 33.679 52.2725 33.6343C52.1622 33.5897 52.0618 33.5236 51.9771 33.4399C51.8925 33.3562 51.8253 33.2565 51.7795 33.1467C51.7336 33.0368 51.71 32.919 51.71 32.8C51.71 32.6809 51.7336 32.5631 51.7795 32.4532C51.8253 32.3434 51.8925 32.2437 51.9771 32.16C52.0618 32.0763 52.1622 32.0102 52.2725 31.9656C52.3829 31.9209 52.501 31.8986 52.62 31.9Z" fill="#21337B" fill-opacity="0.901961"></path><path d="M52.02 2.50006C52.2587 2.50006 52.4876 2.59488 52.6564 2.76367C52.8252 2.93245 52.92 3.16139 52.92 3.40008C52.92 3.63877 52.8252 3.86768 52.6564 4.03646C52.4876 4.20525 52.2587 4.30007 52.02 4.30007C51.901 4.3014 51.7829 4.2791 51.6725 4.23446C51.5622 4.18982 51.4618 4.12374 51.3772 4.04003C51.2925 3.95633 51.2253 3.85667 51.1795 3.74682C51.1336 3.63697 51.11 3.51912 51.11 3.40008C51.11 3.28104 51.1336 3.16319 51.1795 3.05334C51.2253 2.94349 51.2925 2.8438 51.3772 2.7601C51.4618 2.67639 51.5622 2.61034 51.6725 2.5657C51.7829 2.52106 51.901 2.49873 52.02 2.50006Z" fill="#21337B" fill-opacity="0.901961"></path><path d="M35.65 9.40013C35.7691 9.39881 35.8872 9.42111 35.9975 9.46574C36.1079 9.51038 36.2083 9.57647 36.2929 9.66017C36.3775 9.74388 36.4447 9.84353 36.4906 9.95338C36.5364 10.0632 36.56 10.1811 36.56 10.3001C36.5563 10.4258 36.5272 10.5495 36.4743 10.6636C36.4215 10.7777 36.346 10.8799 36.2526 10.9641C36.1591 11.0482 36.0495 11.1125 35.9305 11.1531C35.8114 11.1936 35.6854 11.2096 35.56 11.2001C35.441 11.2014 35.3229 11.1791 35.2125 11.1345C35.1022 11.0899 35.0018 11.0238 34.9171 10.9401C34.8325 10.8564 34.7653 10.7567 34.7195 10.6469C34.6736 10.537 34.65 10.4192 34.65 10.3001C34.6537 10.1744 34.6829 10.0508 34.7357 9.93666C34.7886 9.82254 34.864 9.72031 34.9575 9.63618C35.051 9.55206 35.1605 9.48776 35.2796 9.44719C35.3986 9.40661 35.5246 9.39061 35.65 9.40013Z" fill="#21337B" fill-opacity="0.901961"></path><path d="M22.32 1.20025C22.4391 1.19893 22.5572 1.22123 22.6675 1.26586C22.7779 1.3105 22.8783 1.37659 22.9629 1.46029C23.0475 1.544 23.1147 1.64365 23.1606 1.7535C23.2064 1.86335 23.23 1.98121 23.23 2.10024C23.23 2.21928 23.2064 2.33714 23.1606 2.44699C23.1147 2.55684 23.0475 2.65649 22.9629 2.7402C22.8783 2.8239 22.7779 2.88999 22.6675 2.93463C22.5572 2.97926 22.4391 3.00156 22.32 3.00024C22.201 3.00156 22.0829 2.97926 21.9725 2.93463C21.8622 2.88999 21.7618 2.8239 21.6772 2.7402C21.5925 2.65649 21.5253 2.55684 21.4795 2.44699C21.4336 2.33714 21.41 2.21928 21.41 2.10024C21.4326 1.8675 21.5359 1.65002 21.7022 1.48559C21.8684 1.32116 22.0871 1.22021 22.32 1.20025Z" fill="#21337B" fill-opacity="0.901961"></path><path d="M12.93 12.5002C13.049 12.4989 13.1672 12.5212 13.2775 12.5658C13.3879 12.6105 13.4883 12.6765 13.5729 12.7602C13.6575 12.8439 13.7247 12.9436 13.7706 13.0535C13.8164 13.1633 13.84 13.2812 13.84 13.4002C13.84 13.5193 13.8164 13.6371 13.7706 13.747C13.7247 13.8568 13.6575 13.9565 13.5729 14.0402C13.4883 14.1239 13.3879 14.19 13.2775 14.2346C13.1672 14.2792 13.049 14.3015 12.93 14.3002C12.811 14.3015 12.6929 14.2792 12.5825 14.2346C12.4722 14.19 12.3718 14.1239 12.2871 14.0402C12.2025 13.9565 12.1353 13.8568 12.0895 13.747C12.0436 13.6371 12.02 13.5193 12.02 13.4002C12.0109 13.2788 12.0282 13.1569 12.0709 13.0429C12.1135 12.9288 12.1804 12.8255 12.267 12.7398C12.3535 12.6542 12.4576 12.5885 12.5721 12.5471C12.6866 12.5057 12.8087 12.4897 12.93 12.5002Z" fill="#21337B" fill-opacity="0.901961"></path><path d="M0.910004 25.0001C1.02903 24.9987 1.14714 25.0211 1.25749 25.0657C1.36784 25.1103 1.46824 25.1764 1.55287 25.2601C1.63751 25.3438 1.7047 25.4435 1.75055 25.5533C1.7964 25.6632 1.82001 25.781 1.82001 25.9001C1.82001 26.0191 1.7964 26.137 1.75055 26.2468C1.7047 26.3567 1.63751 26.4563 1.55287 26.54C1.46824 26.6237 1.36784 26.6898 1.25749 26.7345C1.14714 26.7791 1.02903 26.8014 0.910004 26.8001C0.790975 26.8014 0.672865 26.7791 0.562515 26.7345C0.452165 26.6898 0.35177 26.6237 0.267136 26.54C0.182501 26.4563 0.115311 26.3567 0.069458 26.2468C0.0236047 26.137 -7.34641e-06 26.0191 1.71454e-09 25.9001C-7.34641e-06 25.781 0.0236047 25.6632 0.069458 25.5533C0.115311 25.4435 0.182501 25.3438 0.267136 25.2601C0.35177 25.1764 0.452165 25.1103 0.562515 25.0657C0.672865 25.0211 0.790975 24.9987 0.910004 25.0001Z" fill="#21337B" fill-opacity="0.901961"></path><path d="M27.07 54.4C14.95 54.4 2.07001 52 2.07001 47.5C2.07001 45 6.07 43.4 9.45 42.5C9.61051 42.4603 9.7799 42.4786 9.92816 42.5519C10.0764 42.6251 10.194 42.7484 10.26 42.9C10.2985 43.0603 10.2784 43.2292 10.2032 43.3759C10.1279 43.5227 10.0027 43.6376 9.85001 43.7C5.10001 45 3.39 46.5 3.39 47.5C3.39 48.5 5.1 50.1 10.05 51.3C15.6159 52.636 21.3265 53.2743 27.05 53.2C32.7922 53.2994 38.5249 52.6949 44.12 51.4C49.07 50.1 50.78 48.6 50.78 47.6C50.78 46.6 49.07 45.1 44.32 43.8C44.1803 43.7712 44.0542 43.6964 43.9618 43.5877C43.8694 43.479 43.816 43.3425 43.81 43.2C43.8218 43.0431 43.8902 42.8958 44.0024 42.7855C44.1145 42.6751 44.2629 42.6092 44.42 42.6H44.62C48.06 43.5 52 45.1 52 47.6C52.02 52 39.19 54.4 27.07 54.4Z" fill="#21337B" fill-opacity="0.901961"></path><path d="M21.27 45.6001H11.58C11.5012 45.5987 11.4237 45.5801 11.3529 45.5455C11.282 45.511 11.2196 45.4614 11.17 45.4001C10.4836 44.8154 9.84185 44.1804 9.25001 43.5001C8.69177 42.8768 8.18668 42.2078 7.74002 41.5001C3.50002 35.4001 2.59001 27.6001 5.22001 20.0001C5.25508 19.8724 5.33508 19.7616 5.44531 19.6881C5.55554 19.6146 5.6886 19.5834 5.82002 19.6001C10.5085 19.6338 15.093 20.9852 19.05 23.5001C19.1235 23.545 19.1872 23.6042 19.2372 23.6742C19.2873 23.7442 19.3227 23.8236 19.3414 23.9076C19.3601 23.9916 19.3616 24.0785 19.3459 24.1632C19.3302 24.2478 19.2976 24.3284 19.25 24.4001C19.1556 24.5471 19.0069 24.6507 18.8363 24.6881C18.6658 24.7256 18.4873 24.694 18.34 24.6001C14.7068 22.3383 10.5466 21.063 6.27001 20.9001C3.94001 28.0001 4.85002 35.2001 8.79002 40.8001C9.2377 41.4785 9.74648 42.1145 10.31 42.7001C10.793 43.2849 11.3323 43.8208 11.92 44.3001H21.41C21.5671 44.3094 21.7155 44.3753 21.8277 44.4856C21.9398 44.5959 22.0082 44.7432 22.02 44.9001C21.9883 45.0826 21.8979 45.2497 21.7625 45.376C21.6271 45.5024 21.4542 45.5811 21.27 45.6001Z" fill="#21337B" fill-opacity="0.901961"></path><path d="M42.62 45.6002H32.93C32.7729 45.591 32.6245 45.5251 32.5124 45.4147C32.4002 45.3044 32.3318 45.1571 32.32 45.0002C32.3318 44.8433 32.4002 44.696 32.5124 44.5857C32.6245 44.4753 32.7729 44.4094 32.93 44.4002H42.42C43.03 43.9002 43.53 43.3002 44.04 42.8002C44.55 42.3002 45.04 41.6002 45.55 40.9002C49.49 35.3002 50.4 28.1002 48.08 21.0002C43.7809 21.122 39.5941 22.4001 35.96 24.7002C35.8127 24.794 35.6342 24.8257 35.4637 24.7882C35.2931 24.7507 35.1444 24.6471 35.05 24.5002C35.0038 24.428 34.9723 24.3475 34.9573 24.2631C34.9424 24.1787 34.9442 24.0922 34.9628 24.0086C34.9814 23.925 35.0164 23.8458 35.0656 23.7757C35.1149 23.7056 35.1776 23.646 35.25 23.6002C39.2266 21.1287 43.7986 19.781 48.48 19.7002C48.6089 19.7032 48.7344 19.7423 48.8422 19.813C48.95 19.8837 49.0359 19.9832 49.09 20.1002C51.71 27.7002 50.8 35.5002 46.56 41.6002C46.06 42.3002 45.56 43.0002 45.05 43.6002C44.4582 44.2804 43.8164 44.9155 43.13 45.5002C42.9702 45.5731 42.7955 45.6073 42.62 45.6002Z" fill="#21337B" fill-opacity="0.901961"></path><path d="M32.93 45.5999H21.27C21.1669 45.6017 21.0654 45.5746 20.977 45.5216C20.8886 45.4685 20.8169 45.3917 20.77 45.2999C17.9638 41.4695 16.4444 36.8481 16.43 32.0999C16.4473 29.2573 16.9933 26.4428 18.04 23.7999C19.8697 19.5296 22.8594 15.8574 26.67 13.1999C26.7149 13.152 26.7691 13.1139 26.8293 13.0879C26.8895 13.0618 26.9544 13.0483 27.02 13.0483C27.0856 13.0483 27.1505 13.0618 27.2107 13.0879C27.2709 13.1139 27.3251 13.152 27.37 13.1999C31.1659 15.8629 34.1413 19.5346 35.96 23.7999C37.0357 26.4342 37.5827 29.2544 37.57 32.0999C37.5673 36.8437 36.062 41.4647 33.27 45.2999C33.2767 45.3445 33.2721 45.39 33.2567 45.4324C33.2412 45.4747 33.2154 45.5125 33.1816 45.5424C33.1478 45.5722 33.1071 45.5931 33.0631 45.6031C33.0192 45.6132 32.9734 45.612 32.93 45.5999ZM21.62 44.3999H32.52C35.0639 40.8388 36.4405 36.5762 36.46 32.1999C36.4804 29.5153 35.9317 26.8569 34.85 24.3999C33.1819 20.495 30.4948 17.1102 27.07 14.5999C23.6179 17.0817 20.9242 20.4748 19.29 24.3999C18.295 26.8801 17.7825 29.5275 17.78 32.1999C17.7455 36.5691 19.0892 40.838 21.62 44.3999Z" fill="#21337B" fill-opacity="0.901961"></path><path d="M33.13 30.3999C32.9729 30.3906 32.8245 30.3247 32.7124 30.2144C32.6002 30.104 32.5319 29.9568 32.52 29.7999C32.4872 27.7859 31.9868 25.8071 31.0583 24.0197C30.1299 22.2322 28.7988 20.6849 27.17 19.4998C25.5333 20.6771 24.1963 22.2228 23.2669 24.012C22.3376 25.8012 21.842 27.7838 21.82 29.7999C21.8082 29.9568 21.7398 30.104 21.6277 30.2144C21.5155 30.3247 21.3671 30.3906 21.21 30.3999C21.0547 30.3883 20.9087 30.3214 20.7986 30.2113C20.6885 30.1012 20.6216 29.9552 20.61 29.7999C20.6612 27.5089 21.2553 25.2628 22.3436 23.2462C23.4318 21.2297 24.9832 19.5001 26.87 18.1999C26.9149 18.152 26.9691 18.1139 27.0293 18.0879C27.0895 18.0618 27.1544 18.0483 27.22 18.0483C27.2856 18.0483 27.3505 18.0618 27.4107 18.0879C27.4709 18.1139 27.5251 18.152 27.57 18.1999C29.4576 19.5002 31.01 21.2295 32.0999 23.2459C33.1898 25.2623 33.7862 27.5084 33.84 29.7999C33.7905 29.9568 33.6975 30.0964 33.5719 30.2026C33.4462 30.3088 33.293 30.3772 33.13 30.3999Z" fill="#21337B" fill-opacity="0.901961"></path><path d="M44.74 13.7001C44.2389 13.7027 43.7421 13.6064 43.2782 13.4168C42.8143 13.2271 42.3923 12.9478 42.0366 12.5948C41.6808 12.2418 41.3981 11.8221 41.2048 11.3597C41.0115 10.8972 40.9113 10.4013 40.91 9.90009C40.9138 9.40426 41.0165 8.91416 41.2119 8.45847C41.4074 8.00277 41.6917 7.59061 42.0483 7.24609C42.405 6.90158 42.8267 6.63163 43.2888 6.45203C43.751 6.27242 44.2444 6.18677 44.74 6.20007C45.7377 6.18923 46.6995 6.57117 47.418 7.26343C48.1365 7.95569 48.5538 8.90274 48.58 9.90009C48.5855 10.404 48.4896 10.9039 48.2981 11.37C48.1065 11.8362 47.8232 12.259 47.465 12.6135C47.1068 12.968 46.681 13.2469 46.2129 13.4335C45.7447 13.6202 45.2439 13.7108 44.74 13.7001ZM44.74 7.50006C44.4097 7.49608 44.0818 7.55788 43.7756 7.68186C43.4694 7.80583 43.1909 7.98952 42.9563 8.2222C42.7218 8.45488 42.5359 8.73191 42.4095 9.03714C42.2831 9.34237 42.2187 9.66969 42.22 10.0001C42.2187 10.3304 42.2831 10.6578 42.4095 10.963C42.5359 11.2682 42.7218 11.5453 42.9563 11.778C43.1909 12.0106 43.4694 12.1943 43.7756 12.3183C44.0818 12.4422 44.4097 12.504 44.74 12.5001C45.0712 12.5054 45.4001 12.4446 45.7075 12.3212C46.0149 12.1979 46.2946 12.0144 46.5302 11.7816C46.7658 11.5487 46.9526 11.2713 47.0797 10.9654C47.2067 10.6595 47.2714 10.3313 47.27 10.0001C47.2714 9.66884 47.2067 9.34069 47.0797 9.03479C46.9526 8.72889 46.7658 8.45141 46.5302 8.2186C46.2946 7.98579 46.0149 7.8023 45.7075 7.67893C45.4001 7.55555 45.0712 7.49474 44.74 7.50006Z" fill="#21337B" fill-opacity="0.901961"></path><path d="M8.49001 10.6C7.07957 10.5975 5.72674 10.0402 4.72382 9.04849C3.72089 8.05679 3.14839 6.71034 3.13 5.30002C3.14839 3.8897 3.72089 2.54321 4.72382 1.55151C5.72674 0.559813 7.07957 0.0025067 8.49001 0C9.8995 0.00254137 11.2513 0.560181 12.2526 1.55215C13.2539 2.54413 13.8242 3.89061 13.84 5.30002C13.8242 6.70943 13.2539 8.05588 12.2526 9.04785C11.2513 10.0398 9.8995 10.5975 8.49001 10.6ZM8.49001 1.20001C7.3989 1.19996 6.35189 1.63064 5.57663 2.39841C4.80137 3.16618 4.36055 4.20897 4.35001 5.30002C4.34592 5.84296 4.45051 6.38122 4.65762 6.88312C4.86474 7.38502 5.17018 7.84041 5.55597 8.22247C5.94176 8.60453 6.40009 8.90556 6.90398 9.10779C7.40787 9.31002 7.94713 9.40938 8.49001 9.40002C9.58111 9.40008 10.6281 8.96937 11.4034 8.2016C12.1786 7.43383 12.6195 6.39107 12.63 5.30002C12.6195 4.20897 12.1786 3.16618 11.4034 2.39841C10.6281 1.63064 9.58111 1.19996 8.49001 1.20001Z" fill="#21337B" fill-opacity="0.901961"></path></svg>