<svg xmlns="http://www.w3.org/2000/svg" width="52" height="54" viewBox="0 0 52 54" fill="none"><path d="M47.98 29.332H1.22V27.632C1.2305 26.7549 1.58566 25.9171 2.20874 25.2996C2.83182 24.6822 3.67282 24.3346 4.55002 24.332H44.64C45.5182 24.3346 46.3602 24.6818 46.9849 25.299C47.6096 25.9162 47.9669 26.754 47.98 27.632V29.332Z" fill="#9BC9FF"></path><path d="M46.11 4.93218C46.6117 4.92955 47.1089 5.02575 47.5734 5.21529C48.0379 5.40484 48.4605 5.68399 48.817 6.03686C49.1736 6.38972 49.4572 6.80938 49.6516 7.27184C49.846 7.7343 49.9474 8.23052 49.95 8.73217C49.9474 9.23382 49.846 9.73007 49.6516 10.1925C49.4572 10.655 49.1736 11.0746 48.817 11.4275C48.4605 11.7803 48.0379 12.0595 47.5734 12.2491C47.1089 12.4386 46.6117 12.5348 46.11 12.5322C45.6084 12.5348 45.1111 12.4386 44.6466 12.2491C44.1822 12.0595 43.7596 11.7803 43.403 11.4275C43.0464 11.0746 42.7628 10.655 42.5685 10.1925C42.3741 9.73007 42.2726 9.23382 42.27 8.73217C42.2726 8.23052 42.3741 7.7343 42.5685 7.27184C42.7628 6.80938 43.0464 6.38972 43.403 6.03686C43.7596 5.68399 44.1822 5.40484 44.6466 5.21529C45.1111 5.02575 45.6084 4.92955 46.11 4.93218Z" fill="#9BC9FF"></path><path d="M2.53004 15.6322C2.78087 15.6309 3.02949 15.679 3.26173 15.7738C3.49397 15.8686 3.70524 16.0081 3.88353 16.1846C4.06181 16.361 4.20362 16.5708 4.30082 16.802C4.39802 17.0333 4.44871 17.2814 4.45002 17.5322C4.44871 17.7831 4.39802 18.0312 4.30082 18.2624C4.20362 18.4936 4.06181 18.7034 3.88353 18.8799C3.70524 19.0563 3.49397 19.1959 3.26173 19.2907C3.02949 19.3854 2.78087 19.4335 2.53004 19.4322C2.27921 19.4335 2.03059 19.3854 1.79835 19.2907C1.56612 19.1959 1.35481 19.0563 1.17652 18.8799C0.998236 18.7034 0.856426 18.4936 0.759227 18.2624C0.662029 18.0312 0.611337 17.7831 0.610027 17.5322C0.602998 17.2791 0.647997 17.0272 0.74226 16.7922C0.836523 16.5572 0.978041 16.344 1.15803 16.1659C1.33802 15.9878 1.55265 15.8485 1.78865 15.7567C2.02464 15.6649 2.277 15.6225 2.53004 15.6322Z" fill="#9BC9FF"></path><path d="M46.97 47.4321C47.5545 47.4347 48.1147 47.6667 48.5299 48.0781C48.9451 48.4896 49.1821 49.0476 49.19 49.6321C49.1821 50.2166 48.9451 50.7747 48.5299 51.1861C48.1147 51.5976 47.5545 51.8296 46.97 51.8321C46.3837 51.8322 45.821 51.6013 45.4037 51.1896C44.9863 50.7779 44.7479 50.2183 44.74 49.6321C44.7479 49.0459 44.9863 48.4864 45.4037 48.0746C45.821 47.6629 46.3837 47.4321 46.97 47.4321Z" fill="#9BC9FF"></path><path d="M13.94 48.132H9.40002C3.94002 44.032 1.22 37.732 1.22 30.632V29.332H8.22V30.632C8.18 37.632 10.11 43.932 13.94 48.132Z" fill="#9BC9FF"></path><path d="M39.49 48.1322V50.8322C39.4855 51.4271 39.2525 51.9975 38.8394 52.4256C38.4262 52.8536 37.8644 53.1066 37.27 53.1322H11.62C11.3228 53.1283 11.0294 53.0656 10.7565 52.9476C10.4837 52.8297 10.237 52.6589 10.0306 52.445C9.82414 52.2312 9.66216 51.9785 9.55394 51.7017C9.44571 51.4249 9.3934 51.1294 9.40004 50.8322V48.0322H39.49V48.1322Z" fill="#9BC9FF"></path><path d="M50.8 41.8321C50.919 41.8308 51.0371 41.8531 51.1475 41.8977C51.2578 41.9423 51.3582 42.0084 51.4429 42.0921C51.5275 42.1758 51.5947 42.2755 51.6406 42.3853C51.6864 42.4952 51.71 42.613 51.71 42.7321C51.71 42.8511 51.6864 42.969 51.6406 43.0788C51.5947 43.1887 51.5275 43.2883 51.4429 43.372C51.3582 43.4558 51.2578 43.5218 51.1475 43.5665C51.0371 43.6111 50.919 43.6334 50.8 43.6321C50.5613 43.6321 50.3324 43.5373 50.1636 43.3685C49.9948 43.1997 49.9 42.9708 49.9 42.7321C49.9 42.4934 49.9948 42.2645 50.1636 42.0957C50.3324 41.9269 50.5613 41.8321 50.8 41.8321Z" fill="#F4FAFF"></path><path d="M48.28 18.7325C48.3991 18.7312 48.5172 18.7535 48.6275 18.7981C48.7379 18.8427 48.8382 18.9088 48.9229 18.9925C49.0075 19.0762 49.0747 19.1759 49.1206 19.2857C49.1664 19.3956 49.19 19.5134 49.19 19.6325C49.19 19.7515 49.1664 19.8694 49.1206 19.9792C49.0747 20.0891 49.0075 20.1888 48.9229 20.2725C48.8382 20.3562 48.7379 20.4222 48.6275 20.4669C48.5172 20.5115 48.3991 20.5338 48.28 20.5325C48.161 20.5338 48.0429 20.5115 47.9325 20.4669C47.8222 20.4222 47.7218 20.3562 47.6371 20.2725C47.5525 20.1888 47.4853 20.0891 47.4395 19.9792C47.3936 19.8694 47.37 19.7515 47.37 19.6325C47.37 19.5134 47.3936 19.3956 47.4395 19.2857C47.4853 19.1759 47.5525 19.0762 47.6371 18.9925C47.7218 18.9088 47.8222 18.8427 47.9325 18.7981C48.0429 18.7535 48.161 18.7312 48.28 18.7325Z" fill="#F4FAFF"></path><path d="M40.11 1.23248C40.2291 1.23115 40.3472 1.25345 40.4575 1.29809C40.5679 1.34273 40.6683 1.40881 40.7529 1.49252C40.8375 1.57622 40.9047 1.67588 40.9506 1.78573C40.9964 1.89558 41.02 2.01344 41.02 2.13247C41.02 2.25151 40.9964 2.36936 40.9506 2.47921C40.9047 2.58906 40.8375 2.68875 40.7529 2.77246C40.6683 2.85616 40.5679 2.92222 40.4575 2.96685C40.3472 3.01149 40.2291 3.03382 40.11 3.0325C39.991 3.03382 39.8729 3.01149 39.7626 2.96685C39.6522 2.92222 39.5518 2.85616 39.4671 2.77246C39.3825 2.68875 39.3153 2.58906 39.2695 2.47921C39.2236 2.36936 39.2 2.25151 39.2 2.13247C39.11 1.63247 39.49 1.23248 40.11 1.23248Z" fill="#F4FAFF"></path><path d="M21.72 0.63238C21.839 0.631057 21.9572 0.653386 22.0675 0.698023C22.1779 0.74266 22.2782 0.808715 22.3629 0.89242C22.4475 0.976125 22.5147 1.07581 22.5606 1.18566C22.6064 1.29551 22.63 1.41337 22.63 1.5324C22.63 1.65144 22.6064 1.76929 22.5606 1.87914C22.5147 1.98899 22.4475 2.08865 22.3629 2.17236C22.2782 2.25606 22.1779 2.32215 22.0675 2.36679C21.9572 2.41142 21.839 2.43372 21.72 2.4324C21.601 2.43372 21.4829 2.41142 21.3725 2.36679C21.2622 2.32215 21.1618 2.25606 21.0771 2.17236C20.9925 2.08865 20.9253 1.98899 20.8795 1.87914C20.8336 1.76929 20.81 1.65144 20.81 1.5324C20.81 1.41337 20.8336 1.29551 20.8795 1.18566C20.9253 1.07581 20.9925 0.976125 21.0771 0.89242C21.1618 0.808715 21.2622 0.74266 21.3725 0.698023C21.4829 0.653386 21.601 0.631057 21.72 0.63238Z" fill="#F4FAFF"></path><path d="M9.80001 19.3322C9.91904 19.3309 10.0371 19.3532 10.1475 19.3978C10.2578 19.4425 10.3582 19.5086 10.4429 19.5923C10.5275 19.676 10.5947 19.7756 10.6406 19.8855C10.6864 19.9953 10.71 20.1132 10.71 20.2322C10.71 20.3513 10.6864 20.4691 10.6406 20.579C10.5947 20.6888 10.5275 20.7885 10.4429 20.8722C10.3582 20.9559 10.2578 21.022 10.1475 21.0666C10.0371 21.1112 9.91904 21.1335 9.80001 21.1322C9.68098 21.1335 9.56286 21.1112 9.45251 21.0666C9.34216 21.022 9.24176 20.9559 9.15713 20.8722C9.07249 20.7885 9.00532 20.6888 8.95947 20.579C8.91361 20.4691 8.89 20.3513 8.89001 20.2322C8.88086 20.1108 8.89821 19.9889 8.94085 19.8749C8.98349 19.7609 9.0504 19.6575 9.13696 19.5719C9.22351 19.4862 9.32765 19.4205 9.44213 19.3791C9.55662 19.3377 9.67873 19.3217 9.80001 19.3322Z" fill="#F4FAFF"></path><path d="M2.23001 46.2321C2.4687 46.2321 2.69764 46.327 2.86642 46.4957C3.0352 46.6645 3.13 46.8934 3.13 47.1321C3.13 47.3708 3.0352 47.5998 2.86642 47.7685C2.69764 47.9373 2.4687 48.0321 2.23001 48.0321C2.11098 48.0335 1.99288 48.0112 1.88253 47.9665C1.77218 47.9219 1.67179 47.8558 1.58715 47.7721C1.50252 47.6884 1.43531 47.5887 1.38946 47.4789C1.34361 47.369 1.31999 47.2512 1.32 47.1321C1.31085 47.0107 1.3282 46.8888 1.37084 46.7748C1.41348 46.6608 1.4804 46.5574 1.56695 46.4718C1.6535 46.3862 1.75764 46.3204 1.87213 46.279C1.98661 46.2376 2.10872 46.2216 2.23001 46.2321Z" fill="#F4FAFF"></path><path d="M1.52002 4.93218C1.63905 4.93086 1.75714 4.95316 1.86749 4.9978C1.97784 5.04243 2.07824 5.10852 2.16287 5.19222C2.24751 5.27593 2.31471 5.37559 2.36057 5.48544C2.40642 5.59529 2.43003 5.71314 2.43002 5.83218C2.43003 5.95121 2.40642 6.06907 2.36057 6.17892C2.31471 6.28877 2.24751 6.38843 2.16287 6.47213C2.07824 6.55584 1.97784 6.62192 1.86749 6.66656C1.75714 6.7112 1.63905 6.73349 1.52002 6.73217C1.40099 6.73349 1.28287 6.7112 1.17252 6.66656C1.06217 6.62192 0.961771 6.55584 0.877136 6.47213C0.792501 6.38843 0.725327 6.28877 0.679474 6.17892C0.633621 6.06907 0.610009 5.95121 0.610016 5.83218C0.610009 5.71314 0.633621 5.59529 0.679474 5.48544C0.725327 5.37559 0.792501 5.27593 0.877136 5.19222C0.961771 5.10852 1.06217 5.04243 1.17252 4.9978C1.28287 4.95316 1.40099 4.93086 1.52002 4.93218Z" fill="#F4FAFF"></path><path d="M39.59 48.7324C39.5105 48.7352 39.4312 48.7216 39.3571 48.6924C39.2831 48.6633 39.2158 48.6192 39.1595 48.5629C39.1033 48.5066 39.0592 48.4394 39.03 48.3653C39.0008 48.2912 38.9872 48.212 38.99 48.1324C38.9867 48.0154 39.0123 47.8994 39.0647 47.7948C39.117 47.6901 39.1944 47.6 39.29 47.5324C41.8736 45.5518 43.9523 42.9884 45.3565 40.0513C46.7607 37.1143 47.4507 33.8869 47.37 30.6324V29.4324C47.3747 29.2631 47.4381 29.1007 47.5494 28.973C47.6607 28.8453 47.8129 28.7602 47.98 28.7324C48.1479 28.7366 48.3092 28.7986 48.4367 28.9079C48.5642 29.0172 48.6502 29.1672 48.68 29.3324V30.6324C48.7273 34.1251 47.9676 37.5815 46.46 40.7324C44.979 43.8505 42.762 46.5618 40 48.6324C39.8 48.6324 39.69 48.7324 39.59 48.7324Z" fill="#F4FAFF"></path><path d="M9.40002 48.7324C9.25593 48.7472 9.11113 48.7119 8.99002 48.6324C3.54002 44.5324 0.51001 38.1324 0.51001 30.6324V29.3324C0.527754 29.1599 0.611652 29.0011 0.744049 28.8892C0.876446 28.7773 1.04703 28.7211 1.22 28.7324C1.3906 28.7501 1.54792 28.8326 1.65955 28.9628C1.77117 29.093 1.8286 29.2611 1.82001 29.4324V30.6324C1.82001 37.7324 4.65001 43.7324 9.82001 47.6324C9.88684 47.6841 9.94262 47.7487 9.98398 47.8223C10.0253 47.896 10.0515 47.9772 10.0608 48.0612C10.0701 48.1452 10.0625 48.2301 10.0383 48.3111C10.0141 48.392 9.97387 48.4673 9.92001 48.5324C9.77825 48.6625 9.59243 48.7339 9.40002 48.7324Z" fill="#F4FAFF"></path><path d="M13.94 48.7323C13.74 48.7323 13.64 48.6323 13.44 48.5323C9.6 44.4323 7.44 38.0323 7.44 30.6323V29.3323C7.45771 29.1617 7.54018 29.0044 7.67041 28.8927C7.80064 28.7811 7.96871 28.7237 8.14001 28.7323C8.31242 28.7476 8.47223 28.829 8.58594 28.9595C8.69965 29.09 8.75846 29.2594 8.75003 29.4323V30.6323C8.75003 37.7323 10.75 43.8323 14.31 47.7323C14.4074 47.8621 14.46 48.02 14.46 48.1823C14.46 48.3446 14.4074 48.5025 14.31 48.6323C14.24 48.6323 14.04 48.7323 13.94 48.7323Z" fill="#F4FAFF"></path><path d="M35.11 48.7321C35.0327 48.7306 34.9566 48.7119 34.8874 48.6773C34.8182 48.6427 34.7576 48.5931 34.71 48.5321C34.6378 48.4814 34.5789 48.414 34.5382 48.3357C34.4975 48.2573 34.4763 48.1704 34.4763 48.0821C34.4763 47.9939 34.4975 47.9069 34.5382 47.8286C34.5789 47.7502 34.6378 47.6829 34.71 47.6321C37.271 44.7034 39.0131 41.1502 39.76 37.3321C39.86 37.0321 40.16 36.7321 40.46 36.8321C40.76 36.9321 41.07 37.2321 40.97 37.5321C40.1863 41.5781 38.3358 45.3412 35.61 48.4321C35.4808 48.5843 35.3051 48.6897 35.11 48.7321Z" fill="#F4FAFF"></path><path d="M37.27 53.7321H11.62C10.8473 53.7348 10.105 53.4311 9.55585 52.8875C9.00665 52.3439 8.69529 51.6048 8.69 50.8321V48.0321C8.70183 47.8752 8.77021 47.7279 8.88239 47.6176C8.99456 47.5073 9.14294 47.4414 9.30002 47.4321H39.39C39.5471 47.4414 39.6955 47.5073 39.8076 47.6176C39.9198 47.7279 39.9882 47.8752 40 48.0321V50.8321C40.0375 51.2077 39.994 51.587 39.8724 51.9444C39.7508 52.3017 39.554 52.6289 39.2953 52.9037C39.0366 53.1785 38.7219 53.3947 38.3725 53.5376C38.0232 53.6805 37.6472 53.7468 37.27 53.7321ZM10 48.7321V50.8321C9.99866 51.0443 10.0398 51.2546 10.1209 51.4507C10.2021 51.6467 10.3217 51.8246 10.4727 51.9737C10.6237 52.1228 10.803 52.2402 11 52.3189C11.197 52.3976 11.4079 52.4361 11.62 52.4321H37.27C37.4822 52.4361 37.693 52.3976 37.89 52.3189C38.0871 52.2402 38.2664 52.1228 38.4174 51.9737C38.5683 51.8246 38.6879 51.6467 38.7691 51.4507C38.8503 51.2546 38.8914 51.0443 38.89 50.8321V48.7321H10Z" fill="#F4FAFF"></path><path d="M47.98 29.9325H1.22C1.06293 29.9232 0.914545 29.8573 0.802368 29.747C0.690191 29.6367 0.621848 29.4894 0.610016 29.3325V27.6325C0.617943 26.5936 1.03686 25.6002 1.77518 24.8694C2.5135 24.1386 3.51116 23.7298 4.55002 23.7325H44.64C45.1548 23.7298 45.6651 23.8286 46.1417 24.0232C46.6183 24.2178 47.0519 24.5043 47.4178 24.8665C47.7836 25.2286 48.0746 25.6593 48.274 26.1339C48.4734 26.6085 48.5774 27.1177 48.58 27.6325V29.3325C48.5685 29.4878 48.5015 29.6338 48.3914 29.7439C48.2813 29.854 48.1353 29.9209 47.98 29.9325ZM1.92001 28.7325H47.37V27.6325C47.37 27.2754 47.2992 26.9218 47.1617 26.5922C47.0241 26.2627 46.8225 25.9637 46.5686 25.7126C46.3147 25.4615 46.0135 25.2632 45.6825 25.1293C45.3514 24.9954 44.9971 24.9285 44.64 24.9325H4.55002C4.19293 24.9285 3.83862 24.9954 3.50757 25.1293C3.17652 25.2632 2.8753 25.4615 2.6214 25.7126C2.36749 25.9637 2.16594 26.2627 2.02838 26.5922C1.89082 26.9218 1.81999 27.2754 1.82001 27.6325V28.7325H1.92001Z" fill="#F4FAFF"></path><path d="M46.97 52.4321C46.6001 52.4347 46.2334 52.3643 45.8908 52.2249C45.5483 52.0855 45.2366 51.8798 44.9736 51.6196C44.7107 51.3595 44.5017 51.05 44.3587 50.709C44.2156 50.3679 44.1413 50.0019 44.14 49.6321C44.1581 48.8899 44.4629 48.1837 44.9906 47.6616C45.5183 47.1395 46.2277 46.8422 46.97 46.832C47.339 46.8307 47.7047 46.9021 48.0461 47.0421C48.3875 47.1821 48.6981 47.388 48.9599 47.648C49.2218 47.908 49.4299 48.217 49.5723 48.5575C49.7147 48.8979 49.7887 49.263 49.79 49.6321C49.7887 50.0011 49.7147 50.3662 49.5723 50.7066C49.4299 51.0471 49.2218 51.3561 48.9599 51.6161C48.6981 51.8761 48.3875 52.082 48.0461 52.222C47.7047 52.362 47.339 52.4334 46.97 52.4321ZM46.97 48.1321C46.7578 48.128 46.5471 48.1665 46.35 48.2453C46.153 48.324 45.9737 48.4414 45.8227 48.5905C45.6717 48.7396 45.5521 48.9174 45.4709 49.1135C45.3898 49.3095 45.3486 49.5199 45.35 49.732C45.3486 49.9442 45.3898 50.1546 45.4709 50.3506C45.5521 50.5467 45.6717 50.7245 45.8227 50.8736C45.9737 51.0227 46.153 51.1401 46.35 51.2188C46.5471 51.2976 46.7578 51.3361 46.97 51.332C47.1817 51.3361 47.3921 51.2975 47.5886 51.2187C47.7851 51.1398 47.9637 51.0223 48.1139 50.873C48.2641 50.7238 48.3827 50.5459 48.4628 50.3499C48.5429 50.1539 48.5827 49.9438 48.58 49.732C48.5827 49.5203 48.5429 49.3102 48.4628 49.1142C48.3827 48.9182 48.2641 48.7403 48.1139 48.5911C47.9637 48.4418 47.7851 48.3243 47.5886 48.2454C47.3921 48.1666 47.1817 48.128 46.97 48.1321Z" fill="#F4FAFF"></path><path d="M25.25 19.8322C21.384 19.8131 17.682 18.2676 14.95 15.5322C14.8526 15.4024 14.8 15.2445 14.8 15.0822C14.8 14.9199 14.8526 14.762 14.95 14.6322C15.0814 14.534 15.241 14.481 15.405 14.481C15.569 14.481 15.7286 14.534 15.86 14.6322C18.3537 17.119 21.7283 18.5206 25.25 18.5322C25.4071 18.5415 25.5555 18.6073 25.6677 18.7177C25.7798 18.828 25.8482 18.9753 25.86 19.1322C25.8684 19.3051 25.8096 19.4745 25.6959 19.605C25.5822 19.7355 25.4224 19.8169 25.25 19.8322Z" fill="#F4FAFF"></path><path d="M26.67 21.6323C26.0949 21.6489 25.5194 21.6154 24.95 21.5323C24.8692 21.5228 24.7913 21.4967 24.7211 21.4557C24.6509 21.4146 24.5899 21.3595 24.542 21.2938C24.4941 21.228 24.4604 21.1531 24.4428 21.0737C24.4253 20.9943 24.4243 20.9121 24.44 20.8323C24.452 20.752 24.4802 20.675 24.5228 20.6059C24.5654 20.5368 24.6216 20.4771 24.688 20.4303C24.7544 20.3836 24.8295 20.3508 24.9089 20.3339C24.9884 20.3171 25.0704 20.3165 25.15 20.3323C26.6376 20.6083 28.17 20.5156 29.6135 20.0624C31.0569 19.6091 32.3673 18.8091 33.43 17.7323C34.3494 16.7708 35.0442 15.6174 35.4644 14.3551C35.8846 13.0928 36.0197 11.7531 35.86 10.4323C34.5755 11.0801 33.1586 11.4223 31.72 11.4323C30.2 11.5323 28.99 11.6323 27.98 12.6323C26.8996 13.7066 26.1322 15.0549 25.76 16.5323C25.7054 16.6926 25.5894 16.8247 25.4376 16.8996C25.2858 16.9746 25.1105 16.9864 24.95 16.9323C24.8702 16.9075 24.7963 16.8668 24.7326 16.8128C24.669 16.7587 24.6169 16.6923 24.5796 16.6175C24.5422 16.5428 24.5203 16.4613 24.5153 16.3779C24.5102 16.2946 24.522 16.211 24.55 16.1323C24.9821 14.4378 25.851 12.8862 27.07 11.6323C28.3259 10.5361 29.9545 9.96344 31.62 10.0323C33.1715 10.0975 34.6999 9.63965 35.96 8.73231C36.0447 8.66874 36.1434 8.62649 36.2478 8.60908C36.3522 8.59168 36.4593 8.59963 36.56 8.63231C36.6655 8.67347 36.7586 8.74109 36.8305 8.82866C36.9023 8.91622 36.9503 9.02079 36.97 9.13231C37.3077 10.7954 37.2454 12.5151 36.7882 14.1494C36.3309 15.7837 35.4918 17.2859 34.34 18.5323C33.3392 19.5429 32.1429 20.339 30.8242 20.872C29.5055 21.405 28.092 21.6637 26.67 21.6323Z" fill="#F4FAFF"></path><path d="M27.11 9.13227C26.7041 9.14821 26.2978 9.11466 25.9 9.0323C25.8328 9.03657 25.7654 9.02663 25.7023 9.00315C25.6391 8.97967 25.5816 8.94317 25.5335 8.896C25.4854 8.84884 25.4478 8.79207 25.4231 8.72941C25.3984 8.66674 25.3871 8.5996 25.39 8.5323C25.1611 7.38205 25.2066 6.19404 25.5228 5.06467C25.839 3.93531 26.4171 2.89641 27.21 2.0323C28.12 1.0323 29.33 1.03229 30.44 0.93229C31.4432 0.962977 32.4314 0.683603 33.27 0.132271C33.3566 0.0685955 33.457 0.0263322 33.563 0.00894996C33.669 -0.00843224 33.7777 -0.000414137 33.88 0.0322959C33.9836 0.0748428 34.0747 0.143065 34.1447 0.230538C34.2147 0.318011 34.2613 0.421858 34.28 0.532296C34.5026 1.61309 34.4825 2.72977 34.2214 3.80189C33.9603 4.87401 33.4646 5.87484 32.77 6.73228C32.0398 7.49676 31.1611 8.104 30.1878 8.5167C29.2146 8.92941 28.1672 9.13887 27.11 9.13227ZM26.5 7.83228C27.4819 7.9424 28.4758 7.80834 29.3934 7.44199C30.311 7.07565 31.124 6.48834 31.76 5.73228C32.7424 4.55993 33.246 3.05994 33.17 1.5323C32.3381 1.88135 31.442 2.0517 30.54 2.0323C29.54 2.1323 28.73 2.13228 28.22 2.73228C27.5781 3.40641 27.0886 4.21077 26.785 5.09074C26.4813 5.97071 26.3705 6.90571 26.46 7.83228H26.5Z" fill="#F4FAFF"></path><path d="M22.73 21.6321C20.6082 21.6782 18.5025 21.2537 16.5643 20.3892C14.626 19.5247 12.9034 18.2416 11.52 16.6321C10.1301 14.9378 9.13881 12.9527 8.61953 10.8237C8.10025 8.6946 8.06624 6.47605 8.52001 4.33208C8.53877 4.22164 8.58535 4.11779 8.65533 4.03032C8.7253 3.94285 8.81638 3.87463 8.92 3.83208C9.02235 3.79937 9.13099 3.79138 9.23702 3.80876C9.34305 3.82615 9.44347 3.86841 9.53002 3.93208C11.53 5.53208 13.67 5.63208 15.79 5.83208C17.91 6.03208 20.23 6.13208 22.05 7.93208C24.1893 10.174 25.5377 13.0533 25.89 16.1321C25.99 17.1321 25.99 18.1321 25.99 19.2321C25.9728 19.8035 25.9059 20.3723 25.79 20.9321C25.7804 21.0632 25.7234 21.1864 25.6295 21.2784C25.5356 21.3705 25.4113 21.4251 25.28 21.4321C24.4405 21.5963 23.5849 21.6634 22.73 21.6321ZM9.50002 5.53209C9.2636 7.35792 9.40144 9.21275 9.90517 10.9836C10.4089 12.7544 11.268 14.4041 12.43 15.8321C13.711 17.2994 15.2955 18.4707 17.074 19.265C18.8525 20.0593 20.7824 20.4575 22.73 20.4321C23.3019 20.4517 23.8743 20.4182 24.44 20.3321C24.5263 19.9721 24.5633 19.602 24.55 19.2321C24.6704 18.2992 24.6332 17.3527 24.44 16.4321C24.1772 13.596 22.928 10.942 20.91 8.93208C19.5 7.43208 17.68 7.33207 15.56 7.23207C13.435 7.14631 11.3596 6.56412 9.50002 5.53209Z" fill="#F4FAFF"></path><path d="M46.11 13.132C44.9392 13.1295 43.8163 12.6667 42.9838 11.8435C42.1512 11.0203 41.6758 9.90273 41.66 8.73203C41.6758 7.56132 42.1512 6.44374 42.9838 5.62054C43.8163 4.79734 44.9392 4.33455 46.11 4.33203C47.2791 4.33717 48.3994 4.80113 49.2298 5.62405C50.0602 6.44697 50.5343 7.56304 50.55 8.73203C50.5343 9.90101 50.0602 11.0171 49.2298 11.84C48.3994 12.6629 47.2791 13.1269 46.11 13.132ZM46.11 5.63202C45.2851 5.63198 44.4935 5.95763 43.9073 6.53815C43.3212 7.11866 42.9879 7.90711 42.98 8.73203C42.9879 9.55694 43.3212 10.3454 43.9073 10.9259C44.4935 11.5064 45.2851 11.8321 46.11 11.832C46.935 11.8321 47.7266 11.5064 48.3127 10.9259C48.8988 10.3454 49.2321 9.55694 49.24 8.73203C49.2321 7.90711 48.8988 7.11866 48.3127 6.53815C47.7266 5.95763 46.935 5.63198 46.11 5.63202Z" fill="#F4FAFF"></path><path d="M2.53002 19.9325C2.19883 19.9378 1.86991 19.877 1.56252 19.7536C1.25513 19.6302 0.975435 19.4468 0.739829 19.2139C0.504222 18.9811 0.317424 18.7037 0.19039 18.3978C0.0633563 18.0919 -0.00135162 17.7637 2.14005e-05 17.4325C-0.00135162 17.1012 0.0633563 16.773 0.19039 16.4671C0.317424 16.1612 0.504222 15.8838 0.739829 15.651C0.975435 15.4181 1.25513 15.2347 1.56252 15.1113C1.86991 14.9879 2.19883 14.9271 2.53002 14.9325C2.86037 14.9285 3.18821 14.9903 3.49444 15.1142C3.80067 15.2382 4.07914 15.4219 4.31368 15.6546C4.54822 15.8872 4.73411 16.1643 4.86053 16.4695C4.98694 16.7747 5.05136 17.1021 5.05001 17.4325C5.05136 17.7628 4.98694 18.0901 4.86053 18.3954C4.73411 18.7006 4.54822 18.9776 4.31368 19.2103C4.07914 19.443 3.80067 19.6267 3.49444 19.7507C3.18821 19.8746 2.86037 19.9364 2.53002 19.9325ZM2.53002 16.2324C2.18589 16.2375 1.85714 16.3758 1.61284 16.6182C1.36855 16.8607 1.22772 17.1884 1.21999 17.5325C1.22772 17.8765 1.36855 18.2042 1.61284 18.4466C1.85714 18.6891 2.18589 18.8274 2.53002 18.8324C2.87415 18.8274 3.2029 18.6891 3.4472 18.4466C3.69149 18.2042 3.83229 17.8765 3.84002 17.5325C3.8348 17.1876 3.69477 16.8584 3.44994 16.6155C3.20511 16.3725 2.87493 16.235 2.53002 16.2324Z" fill="#F4FAFF"></path></svg>