<svg xmlns="http://www.w3.org/2000/svg" viewBox="0 0 2628.45 1659.91"><defs><style>.cls-1{fill:#ab8985;}.cls-2{fill:#21337b;}.cls-3{fill:#fec397;}.cls-4{fill:#16244f;}.cls-5{fill:#232323;}.cls-6{fill:#b01b23;}.cls-7{fill:#aa353b;}.cls-8{fill:#9bc9ff;}.cls-9{fill:#fdf6e9;}.cls-10{fill:#b77446;}.cls-11{fill:#fef4e8;}.cls-12{fill:#5e2d17;}.cls-13{fill:#ce8655;}.cls-14{fill:#513228;}.cls-15{fill:#c24b4c;}.cls-16{fill:#fefefe;}.cls-17{fill:#5799ce;}.cls-18{fill:#fee555;}.cls-19{fill:#4c3125;}.cls-20{fill:#926c65;}.cls-21{fill:#7c3324;}.cls-22{fill:#4c2621;}.cls-23{fill:#a0442f;}.cls-24{fill:#260e0d;}.cls-25{fill:#172551;}.cls-26{fill:#ddbe26;}.cls-27{fill:#261211;}.cls-28{fill:#617893;}.cls-29{fill:#3e566d;}.cls-30{fill:#953d2b;}.cls-31{fill:#fff4e6;}</style></defs><g id="&#x421;&#x43B;&#x43E;&#x439;_2" data-name="&#x421;&#x43B;&#x43E;&#x439; 2"><g id="Object"><path class="cls-1" d="M609.2,123.55s25.28-38.67,6.64-62.18C601.28,43,584.73,49.68,584.73,49.68s-15-27.47-64.89-11.23C468,55.33,455,156.93,508.56,182.17S609.2,123.55,609.2,123.55Z"></path><path class="cls-2" d="M474.68,399.72c-8.63,8.38-17.9,17.37-27.43,26.55C414.8,457.55,379.41,491.09,356.7,511a57.4,57.4,0,0,1-33.12,14.31c-1.81.15-3.66.21-5.5.18a56,56,0,0,1-23.21-5.39c-30.63-14.46-46-55.43-31.58-89.8a70.28,70.28,0,0,1,7.56-13.57c24-33.75,81.36-96.49,110.69-128,14.22-15.28,33.79-23,53.6-20.91l1.52.17C495.71,275,519.15,356.51,474.68,399.72Z"></path><path class="cls-2" d="M323.85,525.24c-.09,0-.18,0-.27.09l-1,.38c-17.38,6.36-59.5,15.79-103.09,20.55-65.28,7.15-133.86,3.83-127.52-35.92,7.88-49.47,103.75-71,171.35-80,37.67-5,66.57-6.22,66.57-6.22a54.4,54.4,0,0,1,29.46,41.2C362.74,489.39,350.57,515.34,323.85,525.24Z"></path><path class="cls-3" d="M120.58,481.49S53.37,479,28.52,462.32s-15.24,23.92,11.56,33.2c0,0-60.12,38.38-33.1,70.27s79,10.71,94.36-23.46l32.74-3.5S147.15,499.74,120.58,481.49Z"></path><path class="cls-4" d="M447.25,426.27C414.8,457.55,379.41,491.09,356.7,511a57.4,57.4,0,0,1-33.12,14.31l-1,.38c-17.38,6.36-59.5,15.79-103.09,20.55,32.89-8.34,56.91-17,75.41-26.14,25.73-12.65,40.85-26.17,54.44-40.91a93.27,93.27,0,0,0,10-13.91C384,425,416.89,335.46,416.89,335.46l22.1,9.22Z"></path><path class="cls-2" d="M629.42,399.72c8.63,8.38,17.9,17.37,27.42,26.55,32.46,31.28,67.85,64.82,90.55,84.75a57.43,57.43,0,0,0,33.12,14.31c1.82.15,3.66.21,5.51.18a56,56,0,0,0,23.2-5.39c30.64-14.46,46-55.43,31.59-89.8a70.28,70.28,0,0,0-7.56-13.57c-24-33.75-81.36-96.49-110.69-128-14.22-15.28-33.8-23-53.6-20.91l-1.53.17C608.39,275,584.94,356.51,629.42,399.72Z"></path><path class="cls-2" d="M780.25,525.24a2.67,2.67,0,0,1,.26.09l1,.38c17.38,6.36,59.5,15.79,103.09,20.55,65.28,7.15,133.86,3.83,127.52-35.92-7.88-49.47-103.76-71-171.35-80-37.67-5-66.57-6.22-66.57-6.22a54.38,54.38,0,0,0-29.46,41.2C741.35,489.39,753.53,515.34,780.25,525.24Z"></path><path class="cls-3" d="M983.52,481.49s67.21-2.5,92.06-19.17,15.24,23.92-11.56,33.2c0,0,60.11,38.38,33.09,70.27s-79,10.71-94.36-23.46L970,538.83S957,499.74,983.52,481.49Z"></path><path class="cls-4" d="M656.84,426.27c32.46,31.28,67.85,64.82,90.55,84.75a57.43,57.43,0,0,0,33.12,14.31l1,.38c17.38,6.36,59.5,15.79,103.09,20.55-32.9-8.34-56.91-17-75.42-26.14-25.72-12.65-40.85-26.17-54.43-40.91a92.56,92.56,0,0,1-10-13.91C720.13,425,687.2,335.46,687.2,335.46l-22.1,9.22Z"></path><path class="cls-5" d="M646.35,1516.38,639.92,1567s75.71,34.3,73.19,54.25c-4.57,36.16-111,7.63-151.15-5.23l12.86-99.66,41.79-13.66Z"></path><path class="cls-5" d="M391,1516.38l6.43,50.64s-75.72,34.3-73.2,54.25c4.57,36.16,111,7.63,151.16-5.23l-12.86-99.66-41.79-13.66Z"></path><path class="cls-6" d="M661,1546.2a114.92,114.92,0,0,1-17.38,4.72c-29.46,5.67-58.21.39-71.22-2.76-4.6-1.12-7.24-2-7.24-2,18.08-218.81-17.72-673.46-17.72-673.46H523.58C496.45,997.51,473,1539,473,1539c-2.91,1.09-5.85,2-8.79,2.84-27.66,7.66-56,3.67-71.52.27-7.44-1.62-11.91-3.11-11.91-3.11-41-298.84-34.43-528.36-21.7-668.47q2.43-26.81,5.08-49.19,1.18-10.34,2.41-19.68,1.16-9.09,2.31-17.29c.6-4.34,1.21-8.5,1.79-12.45q1.19-7.95,2.28-14.84c4.5-28.09,7.83-42.66,7.83-42.66h179s145.87,18.71,146.47,39.85q.31,11.17.58,22.22.11,3.93.19,7.88.27,11.52.48,22.88c0,3.32.11,6.62.17,9.92l.08,4.17q.42,25.34.59,49.83C711.66,1309.87,661,1546.2,661,1546.2Z"></path><path class="cls-7" d="M708.31,883c-21.22-5.91-42.73-18.08-55.75-42.19-51.85,2.45-119.76,1.87-178.55-9.11q-10.65-2-20.83-4.43c-1,1.51-2,3-2.95,4.43-25.91,42.11-65,50.47-91.2,50.66q2.43-26.8,5.08-49.19,1.18-10.34,2.41-19.68,1.16-9.09,2.31-17.3c.6-4.33,1.21-8.5,1.79-12.44q1.19-7.95,2.28-14.84c4.5-28.09,7.83-42.66,7.83-42.66h179S705.62,745,706.22,766.11q.31,11.19.58,22.22.11,3.95.19,7.88.27,11.52.48,22.89.07,5,.17,9.91l.08,4.18Q708.14,858.53,708.31,883Z"></path><path class="cls-8" d="M736.42,572.76c-.33,38.93-1.34,76.21-2.86,107.76-.61,12.51-1.3,24.11-2,34.57-2.42,33.8-5.55,55.58-9,56.8-5.56,2-37.93,6.23-81.82,8.31-6.47.31-13.19.56-20.11.76-48.53,1.38-107-.26-158.44-9.86-7.09-1.32-14.05-2.8-20.82-4.44-28.7-6.93-54.24-16.81-73.23-30.59-14.39-10.43-11-104.75-1.17-205.44,5-51.19,11.64-104,18.45-148.33,1.53-9.95,3.07-19.47,4.59-28.45l0-.17c.1-.47.17-.94.24-1.43,5.55-32.29,11-57.31,15.43-69.58,1.45-4,2.8-6.6,4-7.7a37.8,37.8,0,0,1,7.47-5.06c.86-.46,1.77-.92,2.72-1.39l1-.49c2.67-1.24,5.63-2.47,8.8-3.66l1.55-.56a4.72,4.72,0,0,1,.45-.16l2-.73,2.51-.84,1.75-.57,3.32-1.05.24-.07c1.22-.38,2.44-.74,3.69-1.11l4.4-1.24,2.83-.78c1.13-.31,2.28-.6,3.43-.91l3-.76.54-.13c.91-.24,1.84-.47,2.77-.69l.82-.2c.84-.22,1.69-.42,2.54-.62,2.55-.62,5.13-1.22,7.72-1.81l4-.89c6.48-1.44,13-2.81,19.38-4.09,4.29-.87,8.51-1.71,12.61-2.52,15.34-3,29-5.55,37.88-7.66,0,0,20.35,2.07,47.12,6.45,1.14.17,2.29.36,3.46.57h0c2.82.46,5.71,1,8.64,1.48,6.53,1.17,13.28,2.45,20.09,3.87,4.85,1,9.73,2.07,14.57,3.19,4.5,1.06,9,2.17,13.38,3.33l2,.55c3.37.9,6.7,1.85,10,2.83l3.36,1,1.45.47,1.19.38.82.27,1.25.41c.89.29,1.78.6,2.66.9s1.79.62,2.67.94l1.6.58,2.73,1L686,266l1.51.61c1,.4,2,.82,3,1.24,1.46.61,2.87,1.26,4.24,1.9a83.32,83.32,0,0,1,15.11,8.82c6.35,4.84,11.39,21.69,15.3,46.46C731,362,734.27,416.4,735.69,474.69,736.48,507,736.69,540.43,736.42,572.76Z"></path><path class="cls-9" d="M593.49,243.5v.23a42,42,0,0,1-84.06,1.05c15.58-3.16,30-5.75,38.68-7.79C548.11,237,568.6,239.07,593.49,243.5Z"></path><path class="cls-3" d="M518.64,183.32V244.4A25.6,25.6,0,0,0,537,269a58.66,58.66,0,0,0,29.31.77A25.58,25.58,0,0,0,586,241.32l-4.52-33.15-.85-6.3L524.19,185Z"></path><path class="cls-10" d="M518.64,191.37v33.46c7.77,12.71,25.27,29,64.29,32.64A25.63,25.63,0,0,0,586,241.32l-4.52-33.15-62.25-18.61Z"></path><path class="cls-3" d="M603.42,77.62s21,66.24,10.38,113-95.93,38.62-105.9-11.21c0,0-23.11-9.25-25.75-34.36-2.9-27.73,26-30.43,39.38-2,0,0,.63-44.44,7.69-49.42s29.15,1.14,46.58-1C590.75,90.7,603.42,77.62,603.42,77.62Z"></path><path class="cls-11" d="M588.65,185.11c0,4.92-6.11,8.91-13.65,8.91s-13.65-4-13.65-8.91Z"></path><path class="cls-12" d="M547.1,158.57c0,3.91,2.33,7.07,5.21,7.07s5.21-3.16,5.21-7.07-2.33-7.07-5.21-7.07S547.1,154.67,547.1,158.57Z"></path><path class="cls-1" d="M543.56,136.9a2.09,2.09,0,0,0,1.7-.87c5.18-7.19,13.13-3,13.47-2.83a2.1,2.1,0,0,0,3-1.12,2.2,2.2,0,0,0-1.13-2.65c-4-2.12-12.78-3.88-18.59,4a2.21,2.21,0,0,0,.1,2.84A2.07,2.07,0,0,0,543.56,136.9Z"></path><ellipse class="cls-12" cx="597.99" cy="158.06" rx="5.21" ry="7.07"></ellipse><path class="cls-1" d="M605.41,136.38a2.09,2.09,0,0,1-1.7-.87c-5.18-7.19-13.13-3-13.47-2.83a2.09,2.09,0,0,1-3-1.12,2.19,2.19,0,0,1,1.13-2.64c4-2.12,12.78-3.88,18.59,4a2.21,2.21,0,0,1-.1,2.84A2.1,2.1,0,0,1,605.41,136.38Z"></path><path class="cls-13" d="M574,180h.1c4.51-.42,7.39-2,8.55-4.77,2.64-6.23-5-15.89-5.36-16.3a1,1,0,0,0-1.63,1.31c2,2.51,6.86,10,5.07,14.18-.84,2-3.14,3.16-6.82,3.5A1,1,0,0,0,574,180Z"></path><path class="cls-13" d="M487.38,134.54s15.42-12.72,28.89,17C516.27,151.5,505.25,130.56,487.38,134.54Z"></path><path class="cls-14" d="M707.47,807.21C668,815.44,611.27,820.6,548.3,820.6c-76.26,0-143.3-7.56-181.78-19q1.16-9.09,2.31-17.29c.6-4.34,1.21-8.5,1.79-12.45,39,10.76,104.06,17.81,177.68,17.81,62.62,0,119-5.1,158.5-13.24q.11,3.93.19,7.88Q707.26,795.85,707.47,807.21Z"></path><rect class="cls-15" x="641.93" y="783.65" width="13.26" height="36.94"></rect><rect class="cls-15" x="418.5" y="778.96" width="13.26" height="36.94"></rect><rect class="cls-16" x="501.58" y="784.39" width="70.83" height="41.46" rx="12.49"></rect><rect class="cls-14" x="513.63" y="791.45" width="46.72" height="27.34" rx="8.24"></rect><path class="cls-17" d="M731.51,715.09c-2.42,33.8-5.55,55.58-9,56.8-5.56,2-37.93,6.23-81.82,8.31-6.47.31-13.19.56-20.11.76-.44-.78-.87-1.57-1.29-2.38a100.55,100.55,0,0,1-8.58-23.22C589,665.6,593.5,243.72,593.5,243.72l4.17.28h0c2.82.46,5.71,1,8.64,1.48,6.53,1.17,13.28,2.45,20.09,3.87,4.85,1,9.73,2.07,14.57,3.19,4.5,1.06,9,2.17,13.38,3.33l2,.55c3.37.9,6.7,1.85,10,2.83l3.36,1,1.45.47,1.19.38.82.27,1.25.41c.89.29,1.78.6,2.66.9l2.67.94,1.6.58,2.73,1L686,266l1.51.61c1,.4,2,.82,3,1.24,1.46.61,2.87,1.26,4.24,1.9,3.51,8.57,6.49,21.66,9,38.15,5.83,38.17,9.14,94.47,10.56,154.75Z"></path><path class="cls-2" d="M509.44,244.78S474.76,581.5,445,758.48a21.75,21.75,0,0,1-3.66,8.18c-1,1.51-2.05,3-2.95,4.44-42.18,68.52-119.11,47.69-119.11,47.69s39.65-308.42,70.7-464.94l0-.17c.1-.47.17-.94.24-1.43,5.55-32.29,11-57.31,15.43-69.58,1.45-4,2.8-6.6,4-7.7a37.8,37.8,0,0,1,7.47-5.06c.86-.46,1.77-.92,2.72-1.39l1-.49c2.67-1.24,5.63-2.47,8.8-3.66l1.55-.56a4.72,4.72,0,0,1,.45-.16l2-.73,2.51-.84,1.75-.57,3.32-1.05.24-.07,3.69-1.11,4.4-1.24,2.83-.78c1.13-.31,2.28-.6,3.43-.91l3-.76.54-.13c.91-.24,1.84-.47,2.77-.69l.82-.2c.84-.22,1.69-.42,2.54-.62,2.55-.62,5.13-1.22,7.72-1.81l4-.89c6.48-1.44,13-2.81,19.38-4.09,4.29-.87,8.51-1.71,12.61-2.52Z"></path><path class="cls-2" d="M760.47,825.85A162,162,0,0,1,726,827.21h0c-28-1.75-66-11.25-85.32-47a95.56,95.56,0,0,1-8.59-22.47c-21.7-86.79-38.58-514-38.58-514l.71-.29c1.14.19,2.29.36,3.47.57,2.82.46,5.71,1,8.64,1.48,6.53,1.17,13.28,2.45,20.09,3.87,4.85,1,9.73,2.07,14.57,3.19,19.79,4.63,39.1,10.35,53.74,17.22a83.32,83.32,0,0,1,15.11,8.82c6.35,4.84,11.39,21.69,15.3,46.46C731,362,734.27,416.4,735.69,474.69Z"></path><polygon class="cls-17" points="489.99 424.11 482.43 250.01 509.21 244.64 489.99 424.11"></polygon><polygon class="cls-17" points="603.2 435.25 617.65 247.59 593.5 243.72 603.2 435.25"></polygon><path class="cls-1" d="M522.87,118.68s-.14,1.8-.26,4.87c-.47,12-2.38,44.47,8,63.36,16.46,29.84,38.45,4.9,50.75,13.27,14,9.55,29.37-5.73,33.2-23.21s-1.87-59.57-1.87-59.57,15.07,56.25,10,89.41-67.84,35.42-90.18,17.58c-20-15.94-30.7-28.57-16.25-90.06l-2.34-24.22Z"></path><path class="cls-8" d="M2300.28,348.73a1422.21,1422.21,0,0,1-119,120C2112.09,530.53,2024,595.4,1948.9,607.06a139.3,139.3,0,0,1-32.61,1.42c-118.06-9.36-123-185.48-123-185.48l0,0,21.36-9.22a342.58,342.58,0,0,1,46.24-14.51c27-6.31,58-9.44,84.59-1.54a91.69,91.69,0,0,1,8.67,3.05l12,6.1L1978,451.23s129.16-86.37,155.64-118.66S2311.91,290,2300.28,348.73Z"></path><path class="cls-17" d="M2181.28,468.7C2112.09,530.53,2024,595.4,1948.9,607.06a139.3,139.3,0,0,1-32.61,1.42c157.35-10.75,209.37-185.63,209.37-185.63Z"></path><polygon class="cls-3" points="2293.84 1337.92 2312.22 1569.16 2343.45 1583.68 2368.15 1561.38 2384.4 1332.04 2366.75 1297.77 2293.84 1337.92"></polygon><path class="cls-5" d="M2307.6,1544.41c6.34-7.33,15.5,20.35,31,22.61s22.28-13.57,34.88-5.17,0,66.2,0,66.2H2214s-9-35.25,16.47-44S2276.92,1579.9,2307.6,1544.41Z"></path><polygon class="cls-3" points="2088.25 1334.47 2081.98 1566.36 2111.5 1584.1 2138.43 1564.56 2178.92 1338.23 2165.01 1302.28 2088.25 1334.47"></polygon><path class="cls-2" d="M2475.82,1463.91c-86.84-27.6-190,72.48-284.06,15.53s-173.68-20.71-173.68-20.71c-9.63-150,11-327,36.93-477.46q4.72-27.43,9.65-53.58c4.44-23.72,9-46.55,13.42-68.21,22.47-109.14,43.64-189.18,49-209.12.85-3.17,1.31-4.82,1.31-4.82l1.88-10.33,1.75-9.68,86.85-55.44,115.78,43.35q5.52,14.65,10.5,29.28,2.86,8.37,5.54,16.71c27,83.78,41.47,165.34,48.94,235.76,3.14,29.76,5,57.53,6.09,82.63,1.49,35.53,1.28,65.73.57,88.69-1,31-2.88,48.83-2.88,48.83C2483.06,1250,2475.82,1463.91,2475.82,1463.91Z"></path><path class="cls-8" d="M2442.57,827.73l0,0-9.22-21.36a342.58,342.58,0,0,1-14.51-46.24c-6.32-27-9.44-58-1.54-84.59q1.32-4.44,3-8.68l6.11-12,44.37-11.8s-86.36-129.15-118.65-155.64a32.93,32.93,0,0,1-5.56-6.06c-27.72-38.06-33.53-171.5,21.71-160.57,0,0,235.09,201.57,258.33,351.38S2442.57,827.73,2442.57,827.73Z"></path><path class="cls-18" d="M2372.17,634.62s-7.77,3-21.44,6.66c-1.75.47-3.61,1-5.54,1.44a405.37,405.37,0,0,1-78.81,11.63,373.47,373.47,0,0,1-75.7-3.9,333.52,333.52,0,0,1-60.37-15.24c-1.06-.37-2.13-.75-3.19-1.15q-11.79-4.32-23.63-9.77S2129.33,358.2,2141,332.37c7.23-16.05,45.86-35.59,74.09-48.08,17.2-7.63,30.54-12.64,30.54-12.64s17.94,2.82,40.68,9c28.33,7.74,64.13,20.72,82,40.07C2400.58,355.62,2372.17,634.62,2372.17,634.62Z"></path><path class="cls-19" d="M2399.67,895.19c-137.4,4.41-242-10.44-321.59-35.71,22.47-109.14,43.64-189.18,49-209.12.85-3.17,1.31-4.82,1.31-4.82l1.88-10.33c-1.06-.37-2.13-.75-3.19-1.15q-11.79-4.32-23.63-9.77S2129.33,358.2,2141,332.37c7.23-16.05,45.86-35.59,74.09-48.08,17.2-7.63,30.54-12.64,30.54-12.64s17.94,2.82,40.68,9c28.33,7.74,64.13,20.72,82,40.07,32.29,34.88,3.88,313.88,3.88,313.88s-7.77,3-21.44,6.66c-1.75.47-3.61,1-5.54,1.44q2.86,8.37,5.54,16.71C2377.71,743.21,2392.2,824.77,2399.67,895.19Z"></path><path class="cls-17" d="M2470.79,643s-86.36-129.15-118.65-155.64a32.93,32.93,0,0,1-5.56-6.06l32.71-74S2398.24,525.18,2470.79,643Z"></path><path class="cls-8" d="M2470.8,778.29c-67.67,67.64-151.2,67.3-151.2,67.3l-53.22-191.24h0l19.89-373.67c28.32,7.75,64.12,20.73,82,40.07,11.31,12.22,15.17,54.4,15.41,104,.45,92.08-11.54,209.84-11.54,209.84C2458.71,697.48,2470.8,778.29,2470.8,778.29Z"></path><path class="cls-8" d="M2215,284.29l-24.36,366.17-35.52,195.13s-43.92,9.91-125.29-12c0,0,34.88-120.13,73.63-209.26,0,0,25.83-266.08,37.46-291.92C2148.18,316.32,2186.81,296.78,2215,284.29Z"></path><path class="cls-17" d="M2442.57,827.74l0,0c-.3-.63-3.91-8-8.52-19.57-.23-.58-.47-1.18-.7-1.79a342.58,342.58,0,0,1-14.51-46.24c-6.31-27-9.43-58-1.54-84.59a91.69,91.69,0,0,1,3.05-8.67,81.86,81.86,0,0,1,3.65-7.76c.77-1.44,1.58-2.87,2.45-4.27a46.83,46.83,0,0,1,7.54,3c11.21,5.39,32.05,19.34,42,51.33a124.65,124.65,0,0,1,5.11,27.12C2486.27,799.54,2442.57,827.74,2442.57,827.74Z"></path><path class="cls-5" d="M2077.05,1544.41c6.34-7.33,15.5,20.35,31,22.61s22.28-13.57,34.88-5.17,0,66.2,0,66.2H1983.4s-9-35.25,16.47-44S2046.37,1579.9,2077.05,1544.41Z"></path><path class="cls-3" d="M2476,709.12a11.38,11.38,0,0,1-6.47,5.57l-20,6.79-5.8,2c-7,15.47-15.64,27.66-24.89,36.65-23,22.38-50.08,25.16-68.24,10-34.42-28.65,18.11-81.24,18.11-81.24-30.2-3.4-49.78-43.57-19.88-32,13.37,5.18,34.92,5.43,54.68,4.1,7.23-.49,14.24-1.18,20.49-1.92,3.61-.42,7-.87,10-1.29C2445.17,663.18,2466,677.13,2476,709.12Z"></path><ellipse class="cls-20" cx="2301.02" cy="90.34" rx="34.08" ry="36.33"></ellipse><ellipse class="cls-1" cx="2255.17" cy="157.35" rx="79.33" ry="84.58"></ellipse><path class="cls-3" d="M2285.92,222.1V286a26.75,26.75,0,0,1-19.25,25.72,61.19,61.19,0,0,1-30.67.81,26.75,26.75,0,0,1-20.6-29.75h0l5.62-41.28,59.09-17.67Z"></path><path class="cls-10" d="M2285.92,240.55s-4.27,40.56-70.52,42.24l5.62-41.28,59.09-17.67Z"></path><path class="cls-3" d="M2197.22,111.52s-21.94,69.31-10.86,118.19,100.36,40.4,110.79-11.74c0,0,24.19-9.67,26.94-35.94,3-29-23.48-33.42-48.66-2.07,0,0-.65-46.49-8-51.71s-23,1.2-41.28-1.08C2210.47,125.21,2197.22,111.52,2197.22,111.52Z"></path><path class="cls-11" d="M2213.14,220.9c0,5,6.51,9.09,14.54,9.09s14.53-4.07,14.53-9.09Z"></path><ellipse class="cls-12" cx="2250.69" cy="196.22" rx="5.45" ry="7.39"></ellipse><path class="cls-1" d="M2259.85,179.67a2.18,2.18,0,0,1-1.78-.91c-5.42-7.52-13.74-3.15-14.1-3a2.19,2.19,0,0,1-3.09-1.17,2.29,2.29,0,0,1,1.18-2.77c4.2-2.22,13.37-4.06,19.45,4.19a2.31,2.31,0,0,1-.1,3A2.22,2.22,0,0,1,2259.85,179.67Z"></path><ellipse class="cls-12" cx="2201.66" cy="195.77" rx="5.45" ry="7.39"></ellipse><path class="cls-1" d="M2193.89,179.22a2.19,2.19,0,0,0,1.78-.9c5.42-7.53,13.74-3.16,14.09-3a2.19,2.19,0,0,0,3.1-1.17,2.3,2.3,0,0,0-1.18-2.77c-4.2-2.21-13.38-4.06-19.45,4.19a2.31,2.31,0,0,0,.1,3A2.21,2.21,0,0,0,2193.89,179.22Z"></path><path class="cls-13" d="M2229.9,211.82h-.11c-4.71-.44-7.72-2.12-8.94-5-2.76-6.53,5.26-16.63,5.61-17.06a1.09,1.09,0,1,1,1.7,1.37c-2.11,2.63-7.17,10.42-5.3,14.83.88,2.08,3.28,3.31,7.14,3.67a1.09,1.09,0,0,1-.1,2.18Z"></path><path class="cls-13" d="M2316.14,171.07s-16.14-13.31-30.23,17.75C2285.91,188.82,2297.44,166.91,2316.14,171.07Z"></path><path class="cls-1" d="M2225.63,111.52s-5.36,42.31,49.8,68.44l20.28-34.22-4.81-37.43L2270,97.08h-13.89Z"></path><path class="cls-1" d="M2227.85,127.36s-19.18,5.61-26.19-5c0,0-3.36,28.08-18.43,33.09,0,0,9.8-51.34,10.41-51.74s32,1.61,32,1.61Z"></path><path class="cls-2" d="M1501.7,376.11c-8.63,8.38-17.9,17.37-27.42,26.55-32.45,31.27-67.85,64.82-90.55,84.74a57.38,57.38,0,0,1-33.12,14.32c-1.82.15-3.66.21-5.5.18a56.13,56.13,0,0,1-23.21-5.39c-30.64-14.47-46-55.43-31.59-89.8a70.89,70.89,0,0,1,7.56-13.58c24-33.75,81.37-96.48,110.69-128,14.22-15.29,33.8-23,53.61-20.91l1.52.17C1522.73,251.37,1546.18,332.9,1501.7,376.11Z"></path><path class="cls-2" d="M1350.87,501.62l-.26.1-1,.38c-17.38,6.36-59.49,15.79-103.09,20.55-65.27,7.15-133.86,3.83-127.52-35.92,7.88-49.47,103.76-71,171.35-80,37.68-5,66.58-6.22,66.58-6.22a54.39,54.39,0,0,1,29.45,41.19C1389.77,465.78,1377.59,491.73,1350.87,501.62Z"></path><path class="cls-3" d="M1147.6,457.87s-67.2-2.49-92.06-19.16-15.24,23.92,11.56,33.19c0,0-60.11,38.39-33.09,70.28s79,10.7,94.36-23.46l32.74-3.5S1174.18,476.13,1147.6,457.87Z"></path><path class="cls-4" d="M1474.28,402.66c-32.45,31.27-67.85,64.82-90.55,84.74a57.38,57.38,0,0,1-33.12,14.32l-1,.38c-17.38,6.36-59.49,15.79-103.09,20.55,32.9-8.34,56.91-17,75.42-26.14,25.73-12.65,40.85-26.18,54.43-40.92a92,92,0,0,0,10-13.91c24.65-40.26,57.58-129.84,57.58-129.84l22.1,9.23Z"></path><path class="cls-2" d="M1961.72,462.12l0,.05a106.77,106.77,0,0,1-8.54,9.88c-32.55,32.79-72.82,79.76-100,79.48-28.76-.3-117.23-75.36-167.83-120.45-21.75-19.4-36.51-33.25-36.51-33.25S1626,286.91,1736.86,255c0,0,72.34,83.18,119.35,148.28,0,0,41-98.85,105.49-80.17C2020.58,340.14,1991.94,422.89,1961.72,462.12Z"></path><path class="cls-4" d="M1961.68,462.17a106.77,106.77,0,0,1-8.54,9.88c-32.55,32.79-72.82,79.76-100,79.48-28.76-.3-117.23-75.36-167.83-120.45l25.79-44.9,44-26.52s38.74,139.83,99,159.12C1889.67,530.13,1932.46,493.91,1961.68,462.17Z"></path><path class="cls-3" d="M2024.58,259.19c-25.71-32.95-75.54,18.08-75.54,18.08-3.62-28.13-41.39-45.81-30.14-18.08,9.84,24.25,2.47,78,.46,91.1a9.65,9.65,0,0,0,.93,5.89c10,19.17,32.84,22.08,44.63,22.24a9.85,9.85,0,0,0,9.48-6.85l8-24.78C2019,338.76,2050.3,292.14,2024.58,259.19Z"></path><path class="cls-5" d="M1673.37,1505.85l-6.43,50.63s75.72,34.3,73.2,54.25c-4.57,36.17-111,7.63-151.16-5.22l12.86-99.66,41.79-13.66Z"></path><path class="cls-5" d="M1418.05,1505.85l6.43,50.63s-75.71,34.3-73.19,54.25c4.57,36.17,111,7.63,151.15-5.22l-12.86-99.66-41.79-13.66Z"></path><path class="cls-6" d="M1688,1522.59c-45.21,16.28-95.84,0-95.84,0,18.08-218.81-17.72-685.35-17.72-685.35h-23.87C1523.48,962,1500,1515.35,1500,1515.35c-43.4,16.28-92.23,0-92.23,0-55.32-403.49-24-680.62-7.82-781.91,4.5-28.09,7.82-42.67,7.82-42.67h179s145.88,18.71,146.48,39.85q.9,32.05,1.42,62.9C1742.85,1266.82,1688,1522.59,1688,1522.59Z"></path><path class="cls-21" d="M1734.67,793.52c-152.22,16.6-311.69-37.39-334.74-60.08,4.5-28.09,7.82-42.67,7.82-42.67h179s145.88,18.71,146.48,39.85Q1734.15,762.68,1734.67,793.52Z"></path><path class="cls-2" d="M1763.45,549.15c-.33,38.93-1.34,76.21-2.86,107.76-2.56,52.93-6.53,89.77-11.07,91.37-16.27,5.78-262.2,31.1-354.43-35.81-14.38-10.44-11-104.76-1.16-205.45,5-51.19,11.64-104,18.45-148.33,9-58.27,18.2-101.78,24.31-107.33,9.82-8.92,35.94-16.53,63.58-22.83l4-.89c6.48-1.44,13-2.8,19.38-4.09,20.32-4.12,39.18-7.51,50.48-10.17,0,0,26.75,2.71,59.24,8.5,6.53,1.16,13.28,2.44,20.09,3.86,4.85,1,9.73,2.07,14.56,3.2,27.74,6.48,54.5,15.09,68.86,26C1757.93,271,1764.52,419.3,1763.45,549.15Z"></path><path class="cls-22" d="M1520.31,88.32s-32.72-72,25.42-86.08,75.92,43,75.92,43,36.72.91,41.57,37c6.37,47.55-19,89.59-54.06,94.37C1566.91,182.42,1520.31,88.32,1520.31,88.32Z"></path><path class="cls-9" d="M1633.35,221.88v.29a54.87,54.87,0,0,1-109.72,1.38c20.32-4.12,39.18-7.51,50.48-10.17C1574.11,213.38,1600.86,216.09,1633.35,221.88Z"></path><path class="cls-3" d="M1613.41,159.7v61.09a25.58,25.58,0,0,1-18.4,24.58,58.43,58.43,0,0,1-29.31.77,25.58,25.58,0,0,1-19.7-28.43h0l5.38-39.46,56.48-16.88Z"></path><path class="cls-10" d="M1613.41,177.33s-4.08,38.77-67.41,40.38l5.38-39.46,56.48-16.88Z"></path><path class="cls-3" d="M1528.63,54s-21,66.24-10.38,113,95.93,38.62,105.9-11.21c0,0,23.11-9.25,25.74-34.36,2.91-27.73-22.44-31.94-46.51-2,0,0-.62-44.44-7.68-49.42s-22,1.14-39.45-1C1541.3,67.09,1528.63,54,1528.63,54Z"></path><path class="cls-11" d="M1544.09,158.56a13.65,13.65,0,0,0,27.3,0Z"></path><path class="cls-12" d="M1585,135c0,3.9-2.33,7.07-5.21,7.07s-5.21-3.17-5.21-7.07,2.33-7.07,5.21-7.07S1585,131.06,1585,135Z"></path><path class="cls-23" d="M1588.49,113.28a2.09,2.09,0,0,1-1.7-.87c-5.18-7.19-13.14-3-13.47-2.83a2.09,2.09,0,0,1-3-1.12,2.19,2.19,0,0,1,1.13-2.64c4-2.12,12.78-3.88,18.58,4a2.19,2.19,0,0,1-.09,2.84A2.1,2.1,0,0,1,1588.49,113.28Z"></path><ellipse class="cls-12" cx="1532.87" cy="130.88" rx="5.21" ry="7.07"></ellipse><path class="cls-23" d="M1525.45,109.2a2.1,2.1,0,0,0,1.7-.86c5.17-7.2,13.13-3,13.47-2.84a2.1,2.1,0,0,0,3-1.11,2.2,2.2,0,0,0-1.13-2.65c-4-2.12-12.79-3.88-18.59,4a2.21,2.21,0,0,0,.1,2.84A2.1,2.1,0,0,0,1525.45,109.2Z"></path><path class="cls-13" d="M1559.86,149.88h-.1c-4.51-.42-7.38-2-8.55-4.77-2.64-6.24,5-15.89,5.36-16.3a1,1,0,1,1,1.63,1.31c-2,2.51-6.85,9.95-5.06,14.18.84,2,3.13,3.16,6.82,3.5a1,1,0,0,1-.1,2.09Z"></path><path class="cls-13" d="M1642.29,110.93s-15.42-12.72-28.89,17C1613.4,127.89,1624.42,107,1642.29,110.93Z"></path><path class="cls-8" d="M1763.45,549.15c-.33,38.93-1.34,76.21-2.86,107.76-108.67-2.09-262-29.45-366.66-149.89,5-51.19,11.64-104,18.45-148.33C1433.18,410.91,1508.15,529.21,1763.45,549.15Z"></path><path class="cls-24" d="M991.8,1517.18l26,43.91S962,1622.65,972.2,1640c18.56,31.37,104.87-37.09,136.64-64.86l-51.4-86.34-43.78,4.07Z"></path><path class="cls-2" d="M1113.12,873.17c-.48,16.47-1.83,31.25-4.29,43.4-6.3,31.23-24.5,71-45.75,109.89-41.09,75.18-93.61,147-93.61,147,27.5,57.18,55,146.86,74.38,216.86,11.27,40.67,19.8,74.68,24,91.83a.35.35,0,0,0,0,.11c1.86,7.62,2.86,11.88,2.86,11.88l-.07.1c-28.92,44.89-74.67,39.27-74.67,39.27s-173.6-200.72-186.25-367.08c-9.53-125.33,101-378.25,156.1-495.38,18-38.35,30.15-62.15,30.15-62.15l86.71-23.74s1.87,10,4.68,26.75c4.26,25.39,10.69,66.23,16.09,110.94C1109.61,773.61,1114.4,829.41,1113.12,873.17Z"></path><path class="cls-25" d="M1113.12,873.17c-.48,16.47-1.83,31.25-4.29,43.4-6.3,31.23-24.5,71-45.75,109.89-41.09,75.18-93.61,147-93.61,147,27.5,57.18,55,146.86,74.38,216.86-41.24-127.64-105.41-232.93-105.41-232.93,87.12-79.57,129.4-359.25,129.4-359.25Z"></path><path class="cls-8" d="M1067.84,364.65c-22.45,40.47-65.07,57.09-65.07,57.09S851.34,397,792.33,378.48A68.86,68.86,0,0,1,752.71,347l0-.06a67.2,67.2,0,0,1-3.92-7.88,71.94,71.94,0,0,1-4.69-39.37,68.71,68.71,0,0,1,4.37-15.4,70.77,70.77,0,0,1,70-43.1c16.28,1.16,37.33,3.16,60.37,5.57,84.6,8.87,195.94,23.38,195.94,23.38C1087,310.41,1080.72,341.44,1067.84,364.65Z"></path><path class="cls-8" d="M878.8,246.78c-21.12,59.73-53.23,115.31-53.23,115.31A56.8,56.8,0,0,1,811.63,368h0c-22.7,6.14-45.86-3.38-58.9-21l0-.06a54,54,0,0,1-9.32-44.06c.1-.45.19-.9.29-1.35.13-.6.27-1.2.42-1.84,1-4.2,2.46-9.42,4.37-15.4C768.32,221.79,834.66,75,880,115,907.34,139,897.29,194.5,878.8,246.78Z"></path><path class="cls-26" d="M716.31,278.91v1.45C716.28,279.43,716.31,278.91,716.31,278.91Z"></path><path class="cls-17" d="M1067.84,364.65c-22.45,40.47-65.07,57.09-65.07,57.09S851.34,397,792.33,378.48A68.86,68.86,0,0,1,752.71,347l0-.06a54.51,54.51,0,0,1-5.5-9.19c.51.43,1.25.7,1.58,1.31,12.77,24.12,39.11,28.9,39.11,28.9,40.24,9.83,121.21,12.86,202.51,1.88C1024.39,365.26,1049.68,363.75,1067.84,364.65Z"></path><path class="cls-5" d="M1127.85,1501.2l4.36,50.85s-77.06,31.19-75.35,51.22c3.09,36.33,110.57,12.15,151.24.94l-8.78-100.1-41.2-15.35Z"></path><path class="cls-2" d="M1270.13,937.94c-40.27,190.47-58.8,567.13-58.8,567.13s-41.46,34.83-100.19,4.72l-38.48-326c-4.12-43.73-7.35-98.62-9.58-157.37-4-106-4.74-224.57-1.37-312.9.46-12.26,1-23.93,1.64-34.91l4-69.79,20.05,3,135.26,20.28s21,27.68,37.8,78.3C1277.89,763.16,1290.67,840.77,1270.13,937.94Z"></path><path class="cls-25" d="M1260.44,710.45c-57.54,19.08-111.32,19.68-157,12.36a356.57,356.57,0,0,1-41.76-9.25c-49.21-14-83.88-34.74-95.87-42.55,18-38.35,30.15-62.15,30.15-62.15l86.71-23.74s1.87,10,4.68,26.75l135.26,20.28S1243.69,659.83,1260.44,710.45Z"></path><path class="cls-23" d="M1108,87.57s31.77-6.06,46.9,18.91-6,28,27.23,50.68-9.83,36.31,20.42,65.06-161.12,40.09-195.92,20.42,17.4-26.47,9.08-42.36,17.45-33.95,3.94-50.68C1003.71,129.93,1026.25,52,1108,87.57Z"></path><path class="cls-8" d="M1411.56,548.88c.57,54.75-60.44,90-107.94,59.84-1.1-.69-2.21-1.41-3.36-2.16-2.33-1.52-4.78-3.17-7.31-4.9-37.1-25.46-94.65-72.59-129.14-101.38-17.46-14.58-29-24.45-29-24.45s-36.64-107.16,69.39-152.78c0,0,134.24,122.58,187.46,177.17a70.27,70.27,0,0,1,19.63,42.87C1411.45,545,1411.55,547,1411.56,548.88Z"></path><path class="cls-8" d="M1411.15,564c-9.79,60.8-38.43,197.19-98.74,202.47-24.14,2.11-33.2-21.93-34-55.5-.81-32.51,6.12-74,14.55-109.27q1.93-8.11,4-15.73c5.87-22.26,12-40.68,16.45-50.62l.56-1.27c.32-.68.63-1.35,1-2,23.61-47.36,91.33-29.85,96.67,16.85A54.62,54.62,0,0,1,1411.15,564Z"></path><path class="cls-3" d="M878.64,13.52C920,7.76,920.3,79.08,920.3,79.08c22.17-17.68,61.6-4.08,34.22,8C930.74,97.57,898.9,140.77,890.94,152a10.77,10.77,0,0,1-5.6,4c-19.86,6.13-37.63-6.77-46.31-14.82a10.68,10.68,0,0,1-2.32-12.54L848,105.79C827.3,74.56,837.24,19.28,878.64,13.52Z"></path><path class="cls-3" d="M1317.74,853c-40.08,11.88-51-58.6-51-58.6-19.28,20.79-60.3,13.25-35-2.79,22-13.93,47-61.43,53.17-73.66a10.72,10.72,0,0,1,4.92-4.79c18.72-9,38.22,1.05,48,7.72a10.66,10.66,0,0,1,4.17,12l-7.72,24.25C1359.37,784.94,1357.81,841.09,1317.74,853Z"></path><path class="cls-17" d="M1306.22,591s-2.47,5.68-6,15.54c-7.34,20.82-19.23,60.33-21.86,104.37-.81-32.51,6.12-74,14.55-109.27-37.1-25.46-94.65-72.59-129.14-101.38l27.48-78.54s23.18,115.55,105.62,164.19Q1301.44,588.63,1306.22,591Z"></path><path class="cls-8" d="M963.44,646.2c-61.48-44.6,9.64-35.46,10.86-77.4s-45.82-208.54-8.44-272.21c10.76-18.32,47.08-29.12,88.19-29.15,32.42,0,67.84,6.67,96,21.66l.23.12c53.66,28.65,82.79,52.38,90.82,102.21s-29.34,170.38,5.62,233.07S1024.93,690.81,963.44,646.2Z"></path><path class="cls-9" d="M1150.07,289.1a49.61,49.61,0,1,1-96-21.66C1086.47,267.43,1121.89,274.11,1150.07,289.1Z"></path><path class="cls-3" d="M1067.33,227.16v60.26a25.23,25.23,0,0,0,18.15,24.26,57.81,57.81,0,0,0,28.92.76,25.24,25.24,0,0,0,19.43-28.06h0l-5.3-38.93-55.72-16.65Z"></path><path class="cls-10" d="M1067.33,244.55s4,38.25,66.5,39.83l-5.3-38.93-55.72-16.65Z"></path><path class="cls-3" d="M1151,122.88s20.69,65.35,10.24,111.44-94.64,38.11-104.48-11.06c0,0-22.8-9.12-25.4-33.89-2.87-27.36,22.14-31.52,45.89-2,0,0,.61-43.84,7.58-48.76s21.73,1.13,38.92-1C1138.47,135.78,1151,122.88,1151,122.88Z"></path><path class="cls-11" d="M1135.72,226a13.47,13.47,0,0,1-26.94,0Z"></path><ellipse class="cls-12" cx="1100.54" cy="202.74" rx="5.14" ry="6.97"></ellipse><path class="cls-23" d="M1091.91,187.14a2.07,2.07,0,0,0,1.68-.86c5.11-7.09,13-3,13.29-2.79a2.06,2.06,0,0,0,2.92-1.1,2.17,2.17,0,0,0-1.11-2.61c-4-2.09-12.62-3.84-18.34,3.94a2.16,2.16,0,0,0,.09,2.8A2.07,2.07,0,0,0,1091.91,187.14Z"></path><path class="cls-12" d="M1136.89,201.1c0,3.85,2.3,7,5.14,7s5.15-3.12,5.15-7-2.31-7-5.15-7S1136.89,197.24,1136.89,201.1Z"></path><path class="cls-23" d="M1149.35,185.49a2,2,0,0,1-1.67-.85c-5.11-7.1-13-3-13.29-2.8a2.06,2.06,0,0,1-2.92-1.1,2.15,2.15,0,0,1,1.11-2.61c4-2.09,12.61-3.83,18.34,4a2.18,2.18,0,0,1-.09,2.8A2.11,2.11,0,0,1,1149.35,185.49Z"></path><path class="cls-13" d="M1120.16,217.46h.09c4.45-.41,7.29-2,8.44-4.7,2.6-6.16-5-15.68-5.29-16.08a1,1,0,0,0-1.45-.16,1,1,0,0,0-.16,1.45c2,2.48,6.76,9.82,5,14-.83,2-3.09,3.12-6.73,3.46a1,1,0,0,0,.1,2.06Z"></path><path class="cls-13" d="M1038.83,179s15.22-12.55,28.5,16.74C1067.33,195.77,1056.46,175.11,1038.83,179Z"></path><path class="cls-23" d="M1124.18,122.88s5,39.89-47,64.53l-19.13-32.27,4.54-35.3,19.67-10.59h13.1Z"></path><path class="cls-23" d="M1122.09,137.81s18.08,5.29,24.7-4.73c0,0,3.16,26.48,17.37,31.2,0,0-9.24-48.41-9.81-48.79s-30.17,1.51-30.17,1.51Z"></path><path class="cls-25" d="M1067.87,1482.22c1.86,7.62,2.86,11.88,2.86,11.88l-.07.1Q1069.22,1489.22,1067.87,1482.22Z"></path><path class="cls-5" d="M1833.27,1559.06l20,33.85s-43,47.45-35.16,60.79c14.31,24.18,80.83-28.59,105.32-50l-39.62-66.55-33.74,3.13Z"></path><path class="cls-22" d="M1926.78,1062.66c-.37,12.7-1.41,24.09-3.3,33.46-4.86,24.07-18.89,54.73-35.27,84.7-31.67,58-72.15,113.28-72.15,113.28,21.19,44.07,42.4,113.2,57.33,167.15,8.69,31.35,15.26,57.56,18.49,70.78,0,0,0,.06,0,.09,1.44,5.87,2.21,9.15,2.21,9.15l-.06.08c-22.29,34.6-57.55,30.27-57.55,30.27s-133.81-154.71-143.56-282.94c-7.35-96.61,77.85-291.55,120.32-381.84,13.91-29.56,23.24-47.9,23.24-47.9l66.84-18.3s1.44,7.73,3.6,20.62c3.29,19.57,8.24,51,12.4,85.51C1924.07,985.92,1927.77,1028.93,1926.78,1062.66Z"></path><path class="cls-27" d="M1926.78,1062.66c-.37,12.7-1.41,24.09-3.3,33.46-4.86,24.07-18.89,54.73-35.27,84.7-31.67,58-72.15,113.28-72.15,113.28,21.19,44.07,42.4,113.2,57.33,167.15-31.79-98.38-81.25-179.54-81.25-179.54,67.15-61.33,99.74-276.91,99.74-276.91Z"></path><path class="cls-5" d="M1938.13,1546.75l3.36,39.19s-59.39,24-58.07,39.48c2.38,28,85.22,9.37,116.57.73l-6.77-77.16-31.76-11.83Z"></path><path class="cls-22" d="M2047.8,1112.59c-31,146.81-45.32,437.14-45.32,437.14s-32,26.85-77.23,3.64l-29.66-251.25c-3.17-33.71-5.66-76-7.38-121.3-3.09-81.7-3.65-173.1-1.06-241.18.36-9.45.78-18.45,1.27-26.91l3.07-53.79,15.45,2.32,104.26,15.63s16.22,21.33,29.13,60.35C2053.79,977.87,2063.64,1037.69,2047.8,1112.59Z"></path><path class="cls-27" d="M2040.33,937.24a253.51,253.51,0,0,1-121,9.53,277.68,277.68,0,0,1-32.19-7.13c-37.92-10.77-64.65-26.78-73.89-32.8,13.91-29.56,23.24-47.9,23.24-47.9l66.84-18.3s1.44,7.73,3.6,20.62l104.26,15.63S2027.42,898.22,2040.33,937.24Z"></path><path class="cls-3" d="M1485.29,817.48c8.77-28.05,63-4.34,63-4.34s-11.94-21.72-.17-18.85S1580.77,814,1580.77,814l120.63-36.75a35.42,35.42,0,0,1,31.59,5.54h0c25.27,18.94,15,58.85-16.21,63.47-63.84,9.43-142.82,4.82-142.82,4.82C1520.62,862.31,1476.53,845.54,1485.29,817.48Z"></path><path class="cls-3" d="M1847.39,781.66c-25.69,13.11-72.31,42.73-100.48,55.57a37.8,37.8,0,0,1-49.5-17.51h0a37.78,37.78,0,0,1,11.25-47.18l89.69-69.81a46.62,46.62,0,0,1,68.52,14.63h0A46.62,46.62,0,0,1,1847.39,781.66Z"></path><path class="cls-28" d="M1914.29,696.51l-8.49,21.74a148.68,148.68,0,0,1-64.21,74.63l-62.34,35.91a67.22,67.22,0,0,1-13.41-8.27c-11.46-8.77-27.36-25.32-35.61-53.45a137.64,137.64,0,0,1-5.3-32.36l80.25-51.59,33.31-21.41c11.6,2.16,30.55,10.87,46.61,19S1914.29,696.51,1914.29,696.51Z"></path><path class="cls-29" d="M1888.59,750.12a148.29,148.29,0,0,1-47,42.76l-62.34,35.91a67.22,67.22,0,0,1-13.41-8.27s45.07-6.43,51.18-75.27C1821.89,690.51,1869.34,721.19,1888.59,750.12Z"></path><path class="cls-3" d="M2111.65,1060.16c-28.05-8.77-4.35-63-4.35-63s-21.72,11.94-18.84.17,19.74-32.63,19.74-32.63l-36.75-120.63a35.42,35.42,0,0,1,5.54-31.59h0c18.94-25.27,58.85-15,63.47,16.21,9.43,63.84,4.82,142.81,4.82,142.81C2156.48,1024.83,2139.7,1068.91,2111.65,1060.16Z"></path><path class="cls-3" d="M2075.82,698.06c13.11,25.69,42.74,72.31,55.58,100.48a37.8,37.8,0,0,1-17.52,49.5h0a37.77,37.77,0,0,1-47.17-11.25L1996.9,747.1a46.63,46.63,0,0,1,14.63-68.53h0A46.61,46.61,0,0,1,2075.82,698.06Z"></path><path class="cls-28" d="M2123,766.19s-14.65,35.22-61.73,49c-3.84,1.13-7.88,2.12-12.16,2.94a146.84,146.84,0,0,1-20.19,2.36l-51.6-80.25-12-18.68L1955.88,707c2.16-11.61,10.86-30.56,19-46.61s15.78-29.19,15.78-29.19l21.74,8.49a148.47,148.47,0,0,1,74.63,64.21Z"></path><path class="cls-29" d="M2049.07,818.16a146.84,146.84,0,0,1-20.19,2.36l-51.6-80.25-12-18.68c24.06-30.27,52.21-73,56.82-19.74C2029,780.89,2049.07,818.16,2049.07,818.16Z"></path><path class="cls-28" d="M2010.62,897.52c-44.74,32.45-231.52,29.82-206.09-15.79s-1.76-133.29,4.09-169.54,27-53.51,66.07-74.35l.16-.09.86-.44c20.36-10.59,45.73-15.32,69-15.31a151.21,151.21,0,0,1,28.76,2.65c17,3.35,30.24,9.76,35.4,18.55,27.18,46.32,4.92,155.58,5.79,186.09S2055.34,865.07,2010.62,897.52Z"></path><path class="cls-11" d="M1973.46,624.65a49.73,49.73,0,0,1-97.75,12.66c20.36-10.59,45.73-15.32,69-15.31A151.21,151.21,0,0,1,1973.46,624.65Z"></path><path class="cls-30" d="M1916.89,480.22s-24.73-4.71-36.5,14.72,4.71,21.78-21.2,39.45,7.65,28.26-15.9,50.63,125.41,31.21,152.5,15.9-13.55-20.61-7.07-33-13.59-26.42-3.07-39.45C1998,513.19,1980.48,452.55,1916.89,480.22Z"></path><path class="cls-3" d="M1948.5,588.87v46.91a19.63,19.63,0,0,1-14.13,18.87,44.87,44.87,0,0,1-22.5.59,19.64,19.64,0,0,1-15.13-21.83h0l4.13-30.3,43.37-13Z"></path><path class="cls-10" d="M1948.5,602.4s-3.13,29.77-51.76,31l4.13-30.3,43.37-13Z"></path><path class="cls-3" d="M1883.4,507.7s-16.1,50.87-8,86.75,73.67,29.65,81.32-8.62c0,0,17.75-7.1,19.77-26.38,2.23-21.29-17.23-24.53-35.72-1.52,0,0-.47-34.12-5.9-37.95s-16.91.88-30.29-.8C1893.13,517.75,1883.4,507.7,1883.4,507.7Z"></path><path class="cls-11" d="M1895.27,588a10.49,10.49,0,1,0,21,0Z"></path><path class="cls-12" d="M1926.65,569.87c0,3-1.79,5.42-4,5.42s-4-2.43-4-5.42,1.79-5.43,4-5.43S1926.65,566.87,1926.65,569.87Z"></path><path class="cls-23" d="M1929.37,557.72a1.61,1.61,0,0,1-1.31-.67c-4-5.52-10.08-2.31-10.34-2.17a1.6,1.6,0,0,1-2.27-.86,1.68,1.68,0,0,1,.86-2c3.08-1.63,9.82-3,14.28,3.07a1.69,1.69,0,0,1-.08,2.18A1.57,1.57,0,0,1,1929.37,557.72Z"></path><path class="cls-12" d="M1890.66,566.73c0,3-1.79,5.43-4,5.43s-4-2.43-4-5.43,1.8-5.42,4-5.42S1890.66,563.74,1890.66,566.73Z"></path><path class="cls-23" d="M1881,554.59a1.58,1.58,0,0,0,1.3-.67c4-5.52,10.09-2.31,10.35-2.17a1.62,1.62,0,0,0,2.27-.86,1.68,1.68,0,0,0-.87-2c-3.08-1.63-9.81-3-14.27,3.07a1.7,1.7,0,0,0,.07,2.18A1.65,1.65,0,0,0,1881,554.59Z"></path><path class="cls-13" d="M1907.39,581.32h-.08c-3.46-.33-5.67-1.56-6.56-3.67-2-4.79,3.86-12.2,4.11-12.51a.8.8,0,1,1,1.25,1c-1.55,1.93-5.26,7.64-3.89,10.89.65,1.52,2.41,2.42,5.24,2.69a.8.8,0,0,1-.07,1.6Z"></path><path class="cls-13" d="M1970.69,551.41s-11.85-9.77-22.19,13C1948.5,564.44,1957,548.36,1970.69,551.41Z"></path><path class="cls-30" d="M1904.26,507.7s-3.94,31.05,36.54,50.23l14.89-25.11-3.53-27.48-15.31-8.24h-10.2Z"></path><path class="cls-30" d="M1905.88,519.32s-14.07,4.13-19.22-3.68c0,0-2.47,20.61-13.52,24.29,0,0,7.19-37.68,7.63-38s23.49,1.17,23.49,1.17Z"></path><path class="cls-3" d="M520.42,1107.05c28-8.74,4.33-62.81,4.33-62.81s21.65,11.89,18.79.16-19.68-32.53-19.68-32.53L560.5,891.63A35.33,35.33,0,0,0,555,860.14h0c-18.88-25.19-58.67-15-63.27,16.16-9.4,63.64-4.81,142.36-4.81,142.36C475.73,1071.83,492.45,1115.78,520.42,1107.05Z"></path><path class="cls-3" d="M553.75,743.72c-13.06,25.62-42.6,72.08-55.39,100.17a37.67,37.67,0,0,0,17.45,49.34h0a37.66,37.66,0,0,0,47-11.22l69.59-89.4a46.48,46.48,0,0,0-14.59-68.31h0A46.47,46.47,0,0,0,553.75,743.72Z"></path><path class="cls-22" d="M506.77,811.65s14.6,35.1,61.53,48.87a137.41,137.41,0,0,0,32.26,5.28l51.42-80,21.34-33.2c-2.15-11.57-10.83-30.46-19-46.46S638.63,677,638.63,677L617,685.5a148.05,148.05,0,0,0-74.39,64Z"></path><path class="cls-27" d="M568.3,860.52a137.41,137.41,0,0,0,32.26,5.28l51.42-80c-14.41-48.14,26.18-41-34.14-61.49C568.3,707.49,569.37,859.6,568.3,860.52Z"></path><path class="cls-3" d="M902.59,1105.86c-28-8.74-4.34-62.81-4.34-62.81s-21.65,11.89-18.78.16,19.67-32.52,19.67-32.52L862.51,890.44A35.33,35.33,0,0,1,868,859h0c18.87-25.19,58.66-15,63.26,16.16,9.41,63.64,4.81,142.36,4.81,142.36C947.28,1070.64,930.55,1114.59,902.59,1105.86Z"></path><path class="cls-3" d="M869.25,742.53c13.07,25.62,42.6,72.08,55.4,100.17A37.68,37.68,0,0,1,907.19,892h0a37.67,37.67,0,0,1-47-11.22l-69.58-89.4a46.48,46.48,0,0,1,14.58-68.31h0A46.48,46.48,0,0,1,869.25,742.53Z"></path><path class="cls-22" d="M916.23,810.46s-14.59,35.1-61.53,48.87a137.23,137.23,0,0,1-32.25,5.28l-51.43-80-21.34-33.2c2.16-11.57,10.83-30.46,19-46.46s15.72-29.1,15.72-29.1L806,684.31a148.12,148.12,0,0,1,74.4,64Z"></path><path class="cls-27" d="M854.7,859.33a137.23,137.23,0,0,1-32.25,5.28l-51.43-80c14.41-48.14-26.18-41,34.15-61.49C854.7,706.3,853.63,858.41,854.7,859.33Z"></path><path class="cls-25" d="M647.77,1556.86l4.47,35.21s-52.67,23.86-50.92,37.74c3.18,25.16,77.19,5.31,105.15-3.63l-9-69.32-29.07-9.51Z"></path><path class="cls-5" d="M825.36,1556.86l-4.47,35.21s52.67,23.86,50.91,37.74c-3.18,25.16-77.19,5.31-105.14-3.63l9-69.32,29.07-9.51Z"></path><path class="cls-8" d="M637.56,1568.5c31.46,11.32,66.67,0,66.67,0-12.58-152.2,12.33-476.71,12.33-476.71h16.59c18.88,86.79,35.23,471.67,35.23,471.67,30.18,11.33,64.14,0,64.14,0C871,1282.81,849.24,1090,838,1019.58c-3.13-19.55-5.45-29.69-5.45-29.69H708s-101.47,13-101.88,27.73q-.63,22.3-1,43.74l0,2.46C599.63,1391.48,637.56,1568.5,637.56,1568.5Z"></path><path class="cls-17" d="M605.1,1063.82C762.21,1087.9,838,1019.58,838,1019.58c-3.13-19.55-5.45-29.69-5.45-29.69H708s-101.47,13-101.88,27.73q-.63,22.3-1,43.74Z"></path><path class="cls-22" d="M586,896.82c.22,27.21.94,53.28,2,75.34,1.79,37,4.57,62.74,7.74,63.87,11.38,4,183.29,21.73,247.76-25,10-7.28,7.67-73.21.81-143.6-3.49-35.79-8.13-72.72-12.9-103.69-6.27-40.74-12.72-71.15-17-75-6.22-5.65-21.74-10.54-39-14.67-1.8-.46-3.63-.88-5.48-1.3-.91-.2-1.85-.4-2.78-.62-4.53-1-9.09-2-13.54-2.85-14.22-2.89-27.39-5.26-35.29-7.12,0,0-18.7,1.9-41.41,5.94-4.57.82-9.28,1.71-14,2.7q-5.08,1.05-10.18,2.24c-2.65.61-5.29,1.26-7.89,2-16.44,4.25-31.56,9.65-40.24,16.25C589.82,702.41,585.21,806.06,586,896.82Z"></path><path class="cls-31" d="M644.77,675.85a65.34,65.34,0,1,0,130.67,0c0-.62,0-1.24,0-1.85-1.8-.46-3.63-.88-5.48-1.3-.91-.2-1.85-.4-2.78-.62-4.53-1-9.09-2-13.54-2.85-14.22-2.89-27.39-5.26-35.29-7.12,0,0-18.7,1.9-41.41,5.94-4.57.82-9.28,1.71-14,2.7q-5.08,1.05-10.18,2.24c-2.65.61-5.29,1.26-7.89,2C644.77,675.24,644.77,675.54,644.77,675.85Z"></path><path class="cls-22" d="M703.42,546.18s49.62,16.92,102.05-7c0,0-15.19-4.65-21.09-7.81,0,0,29.8-5.47,35.38-21.36,0,0-42.35,6.7-63.72-4.24,0,0,17.93-2.23,27.59-10.38,0,0-23.54,9.63-47.54,2.35s-59.18-10.91-80.21,10.47-30.34,85,21.46,135.09-.11-2.71-.11-2.71l14.59-85.34Z"></path><path class="cls-3" d="M677.33,629.19l2.5,58.76a24.54,24.54,0,0,0,18.46,22.84,56.41,56.41,0,0,0,28.51-.41,24.62,24.62,0,0,0,17.73-28.15h0l-6.78-37.73-55-13.93Z"></path><path class="cls-10" d="M678.05,646.15s5.51,37.12,66.48,36.08l-6.78-37.73-55-13.93Z"></path><path class="cls-3" d="M754.56,524.06s22.88,62.86,14.6,108.23-90.7,41.07-102.32-6.45c0,0-22.62-8-26.17-32C636.74,567.29,661,562.2,685.33,590c0,0-1.22-42.76,5.37-47.85s21.23.2,37.9-2.61C742.91,537.16,754.56,524.06,754.56,524.06Z"></path><path class="cls-11" d="M744,625.26a13.14,13.14,0,1,1-26.26,1.11Z"></path><ellipse class="cls-12" cx="708.7" cy="604.02" rx="5.02" ry="6.81" transform="translate(-24.99 30.62) rotate(-2.43)"></ellipse><path class="cls-23" d="M699.4,583.52a2,2,0,0,0,1.6-.9c4.69-7.13,12.51-3.44,12.84-3.27a2,2,0,0,0,2.8-1.2,2.11,2.11,0,0,0-1.19-2.5c-4-1.87-12.46-3.21-17.72,4.61a2.12,2.12,0,0,0,.21,2.72A1.94,1.94,0,0,0,699.4,583.52Z"></path><path class="cls-12" d="M747.42,603.15c.16,3.75,2.53,6.7,5.3,6.58s4.89-3.25,4.73-7-2.54-6.7-5.31-6.58S747.26,599.39,747.42,603.15Z"></path><path class="cls-23" d="M758.68,581.78A2,2,0,0,1,757,581c-5.27-6.7-12.75-2.36-13.07-2.17a2,2,0,0,1-2.89-1,2.1,2.1,0,0,1,1-2.59c3.77-2.21,12.13-4.26,18,3.09a2.12,2.12,0,0,1,0,2.73A2,2,0,0,1,758.68,581.78Z"></path><path class="cls-13" d="M728.43,617.55h.1c4.32-.58,7-2.25,8-4.93,2.29-6.11-5.48-15.09-5.82-15.46a1,1,0,1,0-1.51,1.32c2,2.33,7,9.3,5.45,13.43-.73,1.94-2.89,3.17-6.42,3.65a1,1,0,0,0,.18,2Z"></path><path class="cls-13" d="M647.55,583.46s14.32-12.87,28.48,15.13C676,598.59,664.58,578.9,647.55,583.46Z"></path><path class="cls-22" d="M764.84,550.7s-36.85,8.79-70.39-3.23c0,0,4.83,20.07-9.12,42.56L670,534.58l75.29-28.82,20.55,17.29Z"></path></g></g></svg>