<?xml version="1.0" encoding="UTF-8"?> <svg xmlns="http://www.w3.org/2000/svg" viewBox="0 0 176.89 176.53"><defs><style>.cls-1{isolation:isolate;}.cls-2,.cls-7{fill:#fff;}.cls-3{fill:#c5c5c7;}.cls-4{fill:#66c8d1;}.cls-5{fill:#1f1e21;}.cls-5,.cls-6,.cls-7{mix-blend-mode:overlay;opacity:0.7;}</style></defs><g class="cls-1"><g id="Слой_2" data-name="Слой 2"><g id="OBJECTS"><path class="cls-2" d="M17.65,176.52A17.13,17.13,0,0,1,0,159.24V17.65A17.67,17.67,0,0,1,17.65,0H159.24a17.67,17.67,0,0,1,17.65,17.65V159.24a17.13,17.13,0,0,1-17.65,17.28Z"></path><rect class="cls-3" x="6.09" y="6.09" width="164.71" height="164.71" rx="11.56"></rect><rect class="cls-4" x="8.32" y="8.24" width="159.85" height="159.85" rx="9.13"></rect><path class="cls-2" d="M102.85,70.7a28.12,28.12,0,0,0,8.08-20.14c0-14.56-10.18-26.37-22.74-26.37S65.47,36,65.47,50.56A28.11,28.11,0,0,0,73.54,70.7ZM88.19,33.54c7.7,0,14,7.24,14,16.18s-6.25,16.17-14,16.17S74.26,58.65,74.26,49.72,80.5,33.54,88.19,33.54Z"></path><path class="cls-2" d="M110.71,71.57H66.18a4.67,4.67,0,0,0,0,9.34h44.53a4.67,4.67,0,0,0,0-9.34Z"></path><path class="cls-2" d="M104.45,114.36a3,3,0,0,1-3,3H74.94a3,3,0,0,1-.31-6h27.13A3,3,0,0,1,104.45,114.36Z"></path><path class="cls-2" d="M111.45,83.49a23.34,23.34,0,0,1-15,20.23l2.66,6.6a.31.31,0,0,1-.29.42H77.56a.3.3,0,0,1-.29-.41l2.65-6.61A23.3,23.3,0,0,1,65,83.49a1.45,1.45,0,0,1,1.46-1.55H110A1.47,1.47,0,0,1,111.45,83.49Z"></path><path class="cls-5" d="M165.94,152.74v6.5a6.71,6.71,0,0,1-6.7,6.7H17.64a6.71,6.71,0,0,1-6.69-6.7v-6.5a6.71,6.71,0,0,0,6.69,6.7h141.6A6.71,6.71,0,0,0,165.94,152.74Z"></path><g class="cls-6"><path class="cls-7" d="M165.94,24.14v-6.5a6.71,6.71,0,0,0-6.7-6.69H17.64A6.71,6.71,0,0,0,11,17.64v6.5a6.71,6.71,0,0,1,6.69-6.69h141.6A6.71,6.71,0,0,1,165.94,24.14Z"></path></g></g></g></g></svg> 